<?xml version="1.0" encoding="utf-8"?>
<svg xmlns="http://www.w3.org/2000/svg" xmlns:xlink="http://www.w3.org/1999/xlink" xmlns:cc="http://creativecommons.org/ns#" xmlns:dc="http://purl.org/dc/elements/1.1/" xmlns:rdf="http://www.w3.org/1999/02/22-rdf-syntax-ns#" version="1.1" viewBox="0 0 277.95 370.84" xml:space="preserve" height="600" width="600">
	<metadata><rdf:RDF><cc:Work rdf:about=""><dc:format>image/svg+xml</dc:format><dc:type rdf:resource="http://purl.org/dc/dcmitype/StillImage"/><dc:title/></cc:Work></rdf:RDF></metadata>
	<defs>	<pattern patternUnits="userSpaceOnUse" width="158.7401" height="158.7401" patternTransform="matrix(0.6180667,0,0,0.6180667,-466.341,100.2228)" id="BODY-STARS"><rect y="0.6374094" x="0.6374094" height="157.4653" width="157.4653" id="rect1568" style="fill:#FFFFFF;fill-opacity:1;stroke:#FFFFFF;stroke-width:1.2748188;stroke-opacity:1"/><path transform="matrix(3.779508,0,0,3.966443,288.129,-348.539)" d="M -39.20009,107.3879 L -45.11557,103.4263 L -50.98548,107.4551 L -49.04574,100.605 L -54.69131,96.26733 L -47.577,95.99531 L -45.19624,89.28566 L -42.73909,95.96771 L -35.62214,96.15855 L -41.21785,100.5603 Z" id="STAR_1" style="fill:#0000FF;fill-opacity:1;stroke:#000000;stroke-width:0.332582;stroke-opacity:1"/><path transform="matrix(3.779508,0,0,3.966443,209.5917,-272.1728)" d="M -39.20009,107.3879 L -45.11557,103.4263 L -50.98548,107.4551 L -49.04574,100.605 L -54.69131,96.26733 L -47.577,95.99531 L -45.19624,89.28566 L -42.73909,95.96771 L -35.62214,96.15855 L -41.21785,100.5603 Z" id="STAR_2" style="fill:#0000FF;fill-opacity:1;stroke:#000000;stroke-width:0.332582;stroke-opacity:1"/></pattern><pattern id="CAP-STARS" patternUnits="userSpaceOnUse" width="46.875718" height="46.875718" patternTransform="matrix(0.61806668,0,0,0.61806668,-357.91742,178.79063)">
   <rect y="0.18822601" x="0.18822601" height="46.499268" width="46.499268" id="PATTERN_CAP_BASE" style="fill:#FFFFFF;fill-opacity:1;stroke:#FFFFFF;stroke-width:0.37645203;stroke-opacity:1"/><path transform="matrix(1.116083,0,0,1.1712846,85.084061,-102.92306)" d="m -39.200086,107.3879 -5.915488,-3.96162 -5.869909,4.02885 1.939738,-6.85017 -5.645562,-4.337634 7.114311,-0.272019 2.38076,-6.709651 2.457148,6.682054 7.116953,0.190841 -5.595711,4.401759 z" id="PATTERN_CAP_STAR_1" style="fill:#0000FF;fill-opacity:1;stroke:#000000;stroke-width:0.332582;stroke-opacity:1" type="star"/><path transform="matrix(1.116083,0,0,1.1712846,61.892097,-80.37222)" d="m -39.200086,107.3879 -5.915488,-3.96162 -5.869909,4.02885 1.939738,-6.85017 -5.645562,-4.337634 7.114311,-0.272019 2.38076,-6.709651 2.457148,6.682054 7.116953,0.190841 -5.595711,4.401759 z" id="PATTERN_CAP_STAR_2" style="fill:#0000FF;fill-opacity:1;stroke:#000000;stroke-width:0.332582;stroke-opacity:1"/>
</pattern></defs>
	<path id="body" d="M 135.753 94.3494 C 105.23 94.0994 99.9609 110.227 99.1798 113.688 C 95.0792 115.478 75.4114 124.063 70.7837 126.165 C 65.6638 128.491 52.9902 133.056 52.9902 133.056 C 52.9902 133.056 63.5819 212.366 61.9219 260.094 C 61.9219 260.094 64.7308 275.941 63.7761 283.579 C 62.8202 291.218 63.5935 294.205 63.7761 300.517 C 63.9575 306.826 63.8775 311.142 63.7761 315.46 C 63.6735 319.778 61.0349 329.075 63.7761 333.394 C 66.5174 337.711 85.5734 348.007 117.427 349.335 C 149.282 350.663 200.476 343.024 206.732 339.371 C 212.99 335.717 216.402 330.405 216.118 329.075 C 215.834 327.747 213.811 310.146 214.539 303.837 C 215.265 297.526 214.664 284.244 214.539 280.59 C 214.412 276.938 214.949 268.302 214.539 265.978 C 214.128 263.652 218.11 252.693 218.393 251.697 C 218.678 250.701 225.323 133.056 225.323 133.056 C 225.323 133.056 200.475 122.845 195.356 120.853 C 191.018 119.164 182.322 115.848 179.35 114.715 C 170.94 97.0422 179.575 97.0242 141.028 94.5449 C 139.191 94.4267 137.434 94.3631 135.753 94.3494 Z" style="fill:url(#BODY-STARS);stroke:#211d1d;stroke-miterlimit:10;stroke-width:0.333325"/>
	<path id="cap" d="M 143.192 3.9945 C 140.33 3.95933 137.33 4.10373 134.187 4.43874 C 93.9641 8.72663 94.1677 49.9729 94.1677 49.9729 C 94.1677 49.9729 86.2031 63.4478 120.508 66.8104 C 146.731 86.0579 199.322 80.1919 202.384 74.0654 C 205.447 67.9402 190.951 61.8151 190.951 61.8151 C 191.328 29.8158 176.954 4.40946 143.192 3.9945 Z" style="fill:url(#CAP-STARS);stroke:#211d1d;stroke-miterlimit:10;stroke-width:0.333325"/>
	<path id="capButton" d="M 146.445 4.10955 C 146.445 4.10955 137.329 -5.35555 129.94 5.05219 C 129.94 5.05219 138.865 3.13091 146.445 4.10955 Z" style="fill:#3b393c;stroke:#211d1d;stroke-miterlimit:10;stroke-width:0.333325"/>
	<path id="collar" d="M 140.112 147.266 C 140.112 147.266 139.195 140.389 142.863 137.868 C 146.529 135.346 158.909 125.719 163.722 120.676 C 168.535 115.632 169.911 107.152 168.994 104.171 C 168.078 101.191 162.721 97.2952 156.804 97.2952 C 150.885 97.2952 128.65 96.6073 124.754 97.2952 C 120.856 97.9832 113.522 99.5872 111.687 102.338 C 109.854 105.088 105.04 116.473 111.687 122.128 C 118.335 127.782 127.504 131.449 131.402 136.034 C 135.297 140.618 137.132 148.413 137.132 148.413 C 137.132 148.413 109.547 145.226 99.041 114.383 C 99.041 114.383 101.832 92.022 141.028 94.5447 C 180.227 97.0659 170.621 97.0286 179.779 115.615 C 179.779 115.615 167.39 143.37 140.112 147.266 Z" style="fill:#0000FF;stroke:#211d1d;stroke-miterlimit:10;stroke-width:0.333325"/>
	<path id="collarBack" d="M 135.046 96.9931 C 130.254 96.9729 126.215 97.0369 124.754 97.2949 C 120.856 97.9829 113.522 99.5876 111.687 102.338 C 110.685 103.842 108.803 107.926 108.378 112.243 C 109.848 110.446 112.251 108.955 115.268 107.239 C 118.435 105.439 127.786 104.203 137.769 104.205 C 149.084 104.207 161.209 105.798 166.063 109.959 C 167.21 110.942 167.778 112.179 167.897 113.59 C 169.259 109.757 169.546 105.966 168.994 104.171 C 168.078 101.191 162.721 97.2949 156.804 97.2949 C 153.104 97.2949 143.031 97.0266 135.046 96.9931 Z" style="fill:#0000FF;stroke:#211d1d;stroke-miterlimit:10;stroke-width:0.333325"/>
	<path id="armLeft" d="M 6.72296 360.121 C 6.72296 360.121 5.92831 369.577 16.2574 370.561 C 26.5851 371.545 39.2981 365.637 41.6821 361.697 C 44.0647 357.758 43.2714 352.243 43.2714 352.243 C 43.2714 352.243 46.25 347.711 45.8526 343.575 C 45.4553 339.438 43.1447 331.952 45.8886 323.681 C 48.6339 315.407 53.0031 308.513 53.2018 304.769 C 53.4005 301.028 50.8192 295.117 50.8192 295.117 C 50.8192 295.117 53.7978 281.33 54.3938 271.481 C 54.9898 261.631 54.1951 253.556 55.9831 250.206 C 57.771 246.858 61.5456 240.949 61.5456 240.949 C 61.5456 240.949 63.4002 204.36 63.4002 194.021 C 63.4002 183.681 61.6029 157.299 59.0857 150.525 C 56.5697 143.752 52.6138 133.056 52.6138 133.056 C 52.6138 133.056 42.5487 142.682 37.8742 151.952 C 33.201 161.221 27.0891 192.087 23.8545 201.432 C 20.6186 210.777 13.4281 238.941 11.6308 243.577 C 9.83355 248.212 9.11357 257.482 9.11357 260.333 C 9.11357 263.186 8.61758 268.177 6.70829 270.673 C 4.80034 273.169 3.00172 286.003 3.00172 286.003 C 3.00172 286.003 1.56442 308.82 0.845774 316.663 C 0.125792 324.507 -0.232866 345.185 0.845774 350.533 C 1.92308 355.88 0.736443 357.944 6.72296 360.121 Z" style="fill:#FFFFFF;stroke:#211d1d;stroke-miterlimit:10;stroke-width:0.333325"/>
	<path id="armRight" d="M 271.215 360.121 C 271.215 360.121 272.01 369.577 261.681 370.561 C 251.351 371.545 238.638 365.637 236.256 361.697 C 233.872 357.758 234.667 352.243 234.667 352.243 C 234.667 352.243 231.688 347.711 232.084 343.575 C 232.481 339.438 234.793 331.952 232.048 323.681 C 229.303 315.407 224.933 308.513 224.736 304.769 C 224.536 301.028 227.119 295.117 227.119 295.117 C 227.119 295.117 224.139 281.33 223.543 271.481 C 222.948 261.631 223.743 253.556 221.955 250.206 C 220.167 246.858 216.392 240.949 216.392 240.949 C 216.392 240.949 214.538 204.36 214.538 194.021 C 214.538 183.681 216.335 157.299 218.852 150.525 C 221.368 143.752 225.323 133.056 225.323 133.056 C 225.323 133.056 235.389 142.682 240.062 151.952 C 244.737 161.221 250.849 192.087 254.083 201.432 C 257.319 210.777 264.51 238.941 266.306 243.577 C 268.104 248.212 268.823 257.482 268.823 260.333 C 268.823 263.186 269.319 268.177 271.228 270.673 C 273.138 273.169 274.935 286.003 274.935 286.003 C 274.935 286.003 276.374 308.82 277.092 316.663 C 277.811 324.507 278.171 345.185 277.092 350.533 C 276.014 355.88 277.2 357.944 271.215 360.121 Z" style="fill:#FFFFFF;stroke:#211d1d;stroke-miterlimit:10;stroke-width:0.333325"/>
<g id="ARM-SEAMS">
<path id="SLEEVES_LEFT_SEAM_OUTER" d="m 52.613449,133.05575 c 0,0 -10.064934,9.6257 -14.739436,18.8957 -4.673202,9.269 -10.785377,40.13534 -14.019973,49.48034 -3.235899,9.34501 -10.426417,37.50963 -12.22372,42.14563 -1.7972464,4.635 -2.5169264,13.90441 -2.5169264,16.75541 0,2.85299 -0.4953833,7.84454 -2.4046671,10.34054 -1.9079568,2.496 -3.7072002,15.32974 -3.7072002,15.32974 0,0 -1.4373434,22.81649 -2.15598676,30.65949 -0.719983,7.844 -1.0786434,28.52254 0,33.87054 1.07730336,5.347 -0.10885,7.41028 5.87766696,9.58727 0,0 -0.7949234,9.45675 9.5341655,10.44074 1.812113,0.17266 3.697649,0.13022 5.587952,-0.0736 -9.697494,-1.28642 -8.941451,-10.36711 -8.941451,-10.36711 -5.9865165,-2.17699 -4.8003631,-4.24027 -5.8776665,-9.58727 -1.0786434,-5.348 -0.719983,-26.02654 0,-33.87054 0.7186434,-7.843 2.1559871,-30.65949 2.1559871,-30.65949 0,0 1.7992434,-12.83374 3.7071994,-15.32974 1.909283,-2.496 2.404666,-7.48755 2.404666,-10.34054 0,-2.851 0.71968,-12.12041 2.516926,-16.75541 1.797303,-4.636 8.987821,-32.80062 12.22372,-42.14563 3.234596,-9.345 9.346771,-40.21134 14.019973,-49.48034 2.649236,-5.2537 6.991208,-10.55988 10.289844,-14.22519 -0.462461,-1.24984 -1.731073,-4.67051 -1.731073,-4.67051 z" style="fill:#0000FF;fill-opacity:1;stroke:none;stroke-width:0.53930265;stroke-miterlimit:10"/>
<path id="SLEEVES_LEFT_SEAM_INNER" transform="matrix(0.61806668,0,0,0.61806668,-46.445,0)" d="m 175.94336,364.16211 -10.95117,20.21875 c -0.10601,2.14 -0.26953,5.46289 -0.26953,5.46289 0,0 -6.10727,9.5597 -9,14.97656 -2.8929,5.42016 -1.60602,18.48509 -2.57032,34.42188 -0.96429,15.93517 -5.7832,38.24217 -5.7832,38.24219 0,-4e-5 4.175,9.56248 3.85352,15.61523 -0.32149,6.0576 -7.39028,17.2127 -11.83204,30.59961 -4.43948,13.38205 -0.7014,25.49405 -0.0586,32.1875 0.22833,2.37634 -0.23699,4.82708 -0.92578,7.00781 l 0.46875,0.16211 -3.66016,28.3125 c 3.56916,-2.08443 6.22253,-4.26389 7.3711,-6.16211 3.85492,-6.3731 2.57031,-15.29687 2.57031,-15.29687 0,0 4.81875,-7.33161 4.17578,-14.02344 -0.64281,-6.69345 -4.38089,-18.80545 0.0586,-32.1875 4.44176,-13.38691 11.51055,-24.54201 11.83204,-30.59961 0.32148,-6.05275 -3.85352,-15.61527 -3.85352,-15.61523 0,0 4.8189,-22.30702 5.7832,-38.24219 0.9643,-15.93679 -0.32258,-29.00172 2.57032,-34.42188 2.89273,-5.41686 9,-14.97656 9,-14.97656 0,0 0.5838,-11.77055 1.2207,-25.68164 z m -72.97852,234.93945 c -0.82424,0.12617 -1.64931,0.23913 -2.47461,0.32813 0.31688,0.0421 0.62816,0.0876 0.95899,0.11914 0.47823,0.0456 0.96124,0.0798 1.44531,0.10742 l 0.0703,-0.55469 z" style="fill:#0000FF;fill-opacity:1;stroke:none;stroke-width:0.53930265;stroke-miterlimit:10"/>
<path id="SLEEVES_RIGHT_SEAM_OUTER" d="m 225.32349,133.05575 c 0,0 -1.26868,3.42062 -1.73107,4.67051 3.29872,3.66531 7.64025,8.97149 10.28863,14.22519 4.675,9.269 10.78719,40.13534 14.02118,49.48034 3.236,9.34501 10.42772,37.50963 12.22372,42.14563 1.798,4.635 2.51693,13.90441 2.51693,16.75541 0,2.85299 0.49567,7.84454 2.40467,10.34054 1.91,2.496 3.70719,15.32974 3.70719,15.32974 0,0 1.4392,22.81649 2.1572,30.65949 0.719,7.844 1.079,28.52254 0,33.87054 -1.078,5.347 0.10733,7.41028 -5.87767,9.58727 0,0 0.75674,9.08105 -8.94145,10.36711 1.89033,0.20377 3.77567,0.24627 5.58796,0.0736 10.329,-0.98399 9.53416,-10.44074 9.53416,-10.44074 5.985,-2.17699 4.79967,-4.24027 5.87767,-9.58727 1.079,-5.348 0.719,-26.02654 0,-33.87054 -0.718,-7.843 -2.1572,-30.65949 -2.1572,-30.65949 0,0 -1.79719,-12.83374 -3.70719,-15.32974 -1.909,-2.496 -2.40467,-7.48755 -2.40467,-10.34054 0,-2.851 -0.72014,-12.12041 -2.51814,-16.75541 -1.796,-4.636 -8.98651,-32.80062 -12.22251,-42.14563 -3.234,-9.345 -9.34618,-40.21134 -14.02118,-49.48034 -4.673,-9.27 -14.73823,-18.8957 -14.73823,-18.8957 z" style="fill:#0000FF;fill-opacity:1;stroke:none;stroke-width:0.53930265;stroke-miterlimit:10"/>
<path id="SLEEVES_RIGHT_SEAM_INNER" d="m 215.85792,231.05674 c 0.29002,6.1505 0.53356,11.12882 0.53356,11.12882 0,0 3.77582,5.90853 5.56381,9.25651 1.788,3.35003 0.99241,11.42502 1.58741,21.27502 0.59601,9.849 3.57562,23.63621 3.57562,23.63623 0,-3e-5 -2.58294,5.91025 -2.38294,9.65125 0.197,3.744 4.56798,10.6386 7.31298,18.9126 2.74501,8.271 0.43203,15.75702 0.035,19.89402 -0.396,4.136 2.58333,8.66742 2.58333,8.66742 0,0 -0.79538,5.51549 1.58862,9.45449 0.58731,0.97145 1.80686,2.06308 3.45973,3.14103 l -1.27114,-18.46112 c -0.1743,-0.88118 -0.25777,-1.79365 -0.1847,-2.69197 l -0.0821,-1.18785 0.23177,-0.0157 c 0.6067,-4.28421 2.3448,-11.19317 -0.17987,-18.80033 -2.745,-8.274 -7.11598,-15.1686 -7.31298,-18.9126 -0.2,-3.741 2.38294,-9.65128 2.38294,-9.65125 0,0 -2.97962,-13.78723 -3.57562,-23.63623 -0.42395,-7.01823 -0.14556,-13.12435 -0.59513,-17.27327 l -13.27032,-24.38708 z" style="fill:#0000FF;fill-opacity:1;stroke:none;stroke-width:0.53930265;stroke-miterlimit:10"/>
</g><g id="CUFFS">
   <path id="cuffLeft" d="M 44.7433 329.043 C 20.3479 311.35 0.173748 334.35 0.173748 334.35 C 0.173748 334.35 0.277745 345.133 0.440408 347.004 C 0.604404 348.875 1.10572 352.358 1.36838 353.914 C 1.63104 355.47 1.44838 356.809 2.80835 357.882 C 4.16831 358.956 6.72292 360.122 6.72292 360.122 C 6.72292 360.122 6.40826 364.633 9.33352 367.561 C 12.2588 370.486 18.9186 371.734 28.3717 369.181 C 37.8248 366.63 44.862 362.348 43.2713 352.242 C 43.2713 352.242 46.8326 347.848 45.6139 341.779 C 44.394 335.709 44.7433 329.043 44.7433 329.043 Z" style="fill:none;stroke:#211d1d;stroke-miterlimit:10;stroke-width:0.333325"/>
   <path id="cuffRight" d="M 233.203 329.043 C 257.6 311.35 277.774 334.35 277.774 334.35 C 277.774 334.35 277.669 345.133 277.506 347.004 C 277.342 348.875 276.841 352.358 276.578 353.914 C 276.315 355.47 276.498 356.809 275.138 357.882 C 273.779 358.956 271.223 360.122 271.223 360.122 C 271.223 360.122 271.538 364.633 268.613 367.561 C 265.686 370.486 259.026 371.734 249.575 369.181 C 240.121 366.63 233.084 362.348 234.675 352.242 C 234.675 352.242 231.114 347.848 232.334 341.779 C 233.552 335.709 233.203 329.043 233.203 329.043 Z" style="fill:none;stroke:#211d1d;stroke-miterlimit:10;stroke-width:0.333325"/>
</g><g id="PEAK">
<path id="peak_path" d="M 190.95 61.8148 C 190.95 61.8148 205.447 67.94 202.384 74.0652 C 199.322 80.1917 146.731 86.0582 120.508 66.8107 C 120.508 66.8107 164.407 68.7573 190.95 61.8148 Z" style="fill:none;stroke:#211d1d;stroke-miterlimit:10;stroke-width:0.333325"/>
</g><g id="CUFF-SHADOWS">
   <path id="cuffShadow1" d="M 38.2355 351.3 C 38.2355 351.3 27.8091 349.365 23.1359 351.3 C 18.4627 353.233 13.0695 353.716 11.9908 359.52 C 10.9122 365.322 12.7095 367.3 19.9 367.277 C 27.0904 367.256 42.5487 360.002 38.2355 351.3 Z" style="fill:#none;fill-opacity:0;stroke:#211d1d;stroke-miterlimit:10;stroke-width:0.333325"/>
   <path id="cuffShadow2" d="M 239.709 351.3 C 239.709 351.3 250.135 349.365 254.809 351.3 C 259.482 353.233 264.875 353.716 265.954 359.52 C 267.032 365.322 265.235 367.3 258.045 367.277 C 250.854 367.256 235.396 360.002 239.709 351.3 Z" style="fill:#none;fill-opacity:0;stroke:#211d1d;stroke-miterlimit:10;stroke-width:0.333325"/>
</g></svg>
