<?xml version="1.0" encoding="utf-8"?>
<svg xmlns="http://www.w3.org/2000/svg" xmlns:xlink="http://www.w3.org/1999/xlink" xmlns:cc="http://creativecommons.org/ns#" xmlns:dc="http://purl.org/dc/elements/1.1/" xmlns:rdf="http://www.w3.org/1999/02/22-rdf-syntax-ns#" version="1.1" viewBox="0 0 277.95 370.84" xml:space="preserve" height="600" width="600">
	<metadata><rdf:RDF><cc:Work rdf:about=""><dc:format>image/svg+xml</dc:format><dc:type rdf:resource="http://purl.org/dc/dcmitype/StillImage"/><dc:title/></cc:Work></rdf:RDF></metadata>
	<defs>	</defs>
	<path id="body" d="M 135.753 94.3494 C 105.23 94.0994 99.9609 110.227 99.1798 113.688 C 95.0792 115.478 75.4114 124.063 70.7837 126.165 C 65.6638 128.491 52.9902 133.056 52.9902 133.056 C 52.9902 133.056 63.5819 212.366 61.9219 260.094 C 61.9219 260.094 64.7308 275.941 63.7761 283.579 C 62.8202 291.218 63.5935 294.205 63.7761 300.517 C 63.9575 306.826 63.8775 311.142 63.7761 315.46 C 63.6735 319.778 61.0349 329.075 63.7761 333.394 C 66.5174 337.711 85.5734 348.007 117.427 349.335 C 149.282 350.663 200.476 343.024 206.732 339.371 C 212.99 335.717 216.402 330.405 216.118 329.075 C 215.834 327.747 213.811 310.146 214.539 303.837 C 215.265 297.526 214.664 284.244 214.539 280.59 C 214.412 276.938 214.949 268.302 214.539 265.978 C 214.128 263.652 218.11 252.693 218.393 251.697 C 218.678 250.701 225.323 133.056 225.323 133.056 C 225.323 133.056 200.475 122.845 195.356 120.853 C 191.018 119.164 182.322 115.848 179.35 114.715 C 170.94 97.0422 179.575 97.0242 141.028 94.5449 C 139.191 94.4267 137.434 94.3631 135.753 94.3494 Z" style="fill:#FF00FF;stroke:#211d1d;stroke-miterlimit:10;stroke-width:0.333325"/>
	<path id="cap" d="M 143.192 3.9945 C 140.33 3.95933 137.33 4.10373 134.187 4.43874 C 93.9641 8.72663 94.1677 49.9729 94.1677 49.9729 C 94.1677 49.9729 86.2031 63.4478 120.508 66.8104 C 146.731 86.0579 199.322 80.1919 202.384 74.0654 C 205.447 67.9402 190.951 61.8151 190.951 61.8151 C 191.328 29.8158 176.954 4.40946 143.192 3.9945 Z" style="fill:#FF00FF;stroke:#211d1d;stroke-miterlimit:10;stroke-width:0.333325"/>
	<path id="capButton" d="M 146.445 4.10955 C 146.445 4.10955 137.329 -5.35555 129.94 5.05219 C 129.94 5.05219 138.865 3.13091 146.445 4.10955 Z" style="fill:#3b393c;stroke:#211d1d;stroke-miterlimit:10;stroke-width:0.333325"/>
	<path id="collar" d="M 140.112 147.266 C 140.112 147.266 139.195 140.389 142.863 137.868 C 146.529 135.346 158.909 125.719 163.722 120.676 C 168.535 115.632 169.911 107.152 168.994 104.171 C 168.078 101.191 162.721 97.2952 156.804 97.2952 C 150.885 97.2952 128.65 96.6073 124.754 97.2952 C 120.856 97.9832 113.522 99.5872 111.687 102.338 C 109.854 105.088 105.04 116.473 111.687 122.128 C 118.335 127.782 127.504 131.449 131.402 136.034 C 135.297 140.618 137.132 148.413 137.132 148.413 C 137.132 148.413 109.547 145.226 99.041 114.383 C 99.041 114.383 101.832 92.022 141.028 94.5447 C 180.227 97.0659 170.621 97.0286 179.779 115.615 C 179.779 115.615 167.39 143.37 140.112 147.266 Z" style="fill:none;stroke:#211d1d;stroke-miterlimit:10;stroke-width:0.333325"/>
	<path id="collarBack" d="M 135.046 96.9931 C 130.254 96.9729 126.215 97.0369 124.754 97.2949 C 120.856 97.9829 113.522 99.5876 111.687 102.338 C 110.685 103.842 108.803 107.926 108.378 112.243 C 109.848 110.446 112.251 108.955 115.268 107.239 C 118.435 105.439 127.786 104.203 137.769 104.205 C 149.084 104.207 161.209 105.798 166.063 109.959 C 167.21 110.942 167.778 112.179 167.897 113.59 C 169.259 109.757 169.546 105.966 168.994 104.171 C 168.078 101.191 162.721 97.2949 156.804 97.2949 C 153.104 97.2949 143.031 97.0266 135.046 96.9931 Z" style="fill:none;stroke:#211d1d;stroke-miterlimit:10;stroke-width:0.333325"/>
	<path id="armLeft" d="M 6.72296 360.121 C 6.72296 360.121 5.92831 369.577 16.2574 370.561 C 26.5851 371.545 39.2981 365.637 41.6821 361.697 C 44.0647 357.758 43.2714 352.243 43.2714 352.243 C 43.2714 352.243 46.25 347.711 45.8526 343.575 C 45.4553 339.438 43.1447 331.952 45.8886 323.681 C 48.6339 315.407 53.0031 308.513 53.2018 304.769 C 53.4005 301.028 50.8192 295.117 50.8192 295.117 C 50.8192 295.117 53.7978 281.33 54.3938 271.481 C 54.9898 261.631 54.1951 253.556 55.9831 250.206 C 57.771 246.858 61.5456 240.949 61.5456 240.949 C 61.5456 240.949 63.4002 204.36 63.4002 194.021 C 63.4002 183.681 61.6029 157.299 59.0857 150.525 C 56.5697 143.752 52.6138 133.056 52.6138 133.056 C 52.6138 133.056 42.5487 142.682 37.8742 151.952 C 33.201 161.221 27.0891 192.087 23.8545 201.432 C 20.6186 210.777 13.4281 238.941 11.6308 243.577 C 9.83355 248.212 9.11357 257.482 9.11357 260.333 C 9.11357 263.186 8.61758 268.177 6.70829 270.673 C 4.80034 273.169 3.00172 286.003 3.00172 286.003 C 3.00172 286.003 1.56442 308.82 0.845774 316.663 C 0.125792 324.507 -0.232866 345.185 0.845774 350.533 C 1.92308 355.88 0.736443 357.944 6.72296 360.121 Z" style="fill:#FF00FF;stroke:#211d1d;stroke-miterlimit:10;stroke-width:0.333325"/>
	<path id="armRight" d="M 271.215 360.121 C 271.215 360.121 272.01 369.577 261.681 370.561 C 251.351 371.545 238.638 365.637 236.256 361.697 C 233.872 357.758 234.667 352.243 234.667 352.243 C 234.667 352.243 231.688 347.711 232.084 343.575 C 232.481 339.438 234.793 331.952 232.048 323.681 C 229.303 315.407 224.933 308.513 224.736 304.769 C 224.536 301.028 227.119 295.117 227.119 295.117 C 227.119 295.117 224.139 281.33 223.543 271.481 C 222.948 261.631 223.743 253.556 221.955 250.206 C 220.167 246.858 216.392 240.949 216.392 240.949 C 216.392 240.949 214.538 204.36 214.538 194.021 C 214.538 183.681 216.335 157.299 218.852 150.525 C 221.368 143.752 225.323 133.056 225.323 133.056 C 225.323 133.056 235.389 142.682 240.062 151.952 C 244.737 161.221 250.849 192.087 254.083 201.432 C 257.319 210.777 264.51 238.941 266.306 243.577 C 268.104 248.212 268.823 257.482 268.823 260.333 C 268.823 263.186 269.319 268.177 271.228 270.673 C 273.138 273.169 274.935 286.003 274.935 286.003 C 274.935 286.003 276.374 308.82 277.092 316.663 C 277.811 324.507 278.171 345.185 277.092 350.533 C 276.014 355.88 277.2 357.944 271.215 360.121 Z" style="fill:#FF00FF;stroke:#211d1d;stroke-miterlimit:10;stroke-width:0.333325"/>
<g id="HOOP"><path id="HOOP_1" transform="matrix(0.6180667,0,0,0.6180667,-46.445,0)" d="M 177.1309,287.7949 C 177.8789,298.6263 178.3105,308.9134 178.3105,315.3457 C 178.3105,327.1578 176.8612,359.587 176.002,377.873 H 424.582 C 423.7004,359.4241 422.2598,327.6714 422.2598,315.9785 C 422.2598,309.419 422.7121,298.8592 423.502,287.7949 Z" style="fill:#0000FF;fill-opacity:1;stroke:#000000;stroke-width:0.8777643;stroke-linecap:square;stroke-linejoin:miter;stroke-miterlimit:4;stroke-dasharray:none;stroke-opacity:1"/></g><g id="ARM-STRIPES">
<path id="SLEEVES_LEFT_STRIPE_1" d="m 52.558477,133.31906 c 0,0 -10.064934,9.6257 -14.739436,18.8957 -4.673202,9.269 -10.785377,40.13534 -14.019973,49.48034 -3.235899,9.34501 -10.426417,37.50963 -12.22372,42.14563 -1.7972456,4.635 -2.5169257,13.90441 -2.5169257,16.75541 0,2.85299 -0.4953844,7.84454 -2.4046688,10.34054 -1.9079568,2.496 -3.7072002,15.32974 -3.7072002,15.32974 0,0 -1.4373448,22.81649 -2.15598782,30.65949 -0.7199834,7.844 -1.0786444,28.52254 0,33.87054 1.07730342,5.347 -0.10885,7.41028 5.87766902,9.58727 0,0 -0.7949244,9.45675 9.5341655,10.44074 1.812113,0.17266 3.697649,0.13022 5.587952,-0.0736 -9.697494,-1.28642 -8.941451,-10.36711 -8.941451,-10.36711 -5.9865165,-2.17699 -4.8003631,-4.24027 -5.8776665,-9.58727 -1.0786444,-5.348 -0.7199834,-26.02654 0,-33.87054 0.718643,-7.843 2.1559878,-30.65949 2.1559878,-30.65949 0,0 1.7992427,-12.83374 3.7071987,-15.32974 1.909283,-2.496 2.404666,-7.48755 2.404666,-10.34054 0,-2.851 0.71968,-12.12041 2.516926,-16.75541 1.797303,-4.636 8.987821,-32.80061 12.22372,-42.14563 3.234596,-9.345 9.346771,-40.21134 14.019973,-49.48034 2.649236,-5.2537 6.991208,-10.55988 10.289844,-14.22519 -0.462461,-1.24984 -1.731073,-4.67051 -1.731073,-4.67051 z" style="fill:#0000FF;fill-opacity:1;stroke:none;stroke-width:0.53930265;stroke-miterlimit:10"/><path id="SLEEVES_LEFT_STRIPE_2" d="m 56.632083,143.9021 c -1.924369,2.54434 -3.779004,5.30948 -5.160615,8.04935 -4.6732,9.269 -10.785374,40.13534 -14.019974,49.48034 -3.235898,9.34501 -10.426414,37.50963 -12.223716,42.14563 -1.797247,4.635 -2.516932,13.90441 -2.516932,16.75541 0,2.85299 -0.495373,7.84454 -2.404666,10.34054 -1.907946,2.496 -3.707193,15.32974 -3.707193,15.32974 0,0 -1.437338,22.81649 -2.15599,30.65949 -0.719983,7.844 -1.078634,28.52254 0,33.87054 1.077313,5.347 -0.108846,7.41028 5.877669,9.58727 0,0 -0.586315,7.04487 5.899398,9.60418 1.385539,-0.32263 2.743127,-0.71356 4.047613,-1.15525 -4.216023,-3.06552 -3.766344,-8.44893 -3.766344,-8.44893 -5.986515,-2.17699 -4.800364,-4.24027 -5.877669,-9.58727 -1.078641,-5.348 -0.719983,-26.02654 0,-33.87054 0.718644,-7.843 2.15599,-30.65949 2.15599,-30.65949 0,0 1.799243,-12.83374 3.707193,-15.32974 1.909289,-2.496 2.404665,-7.48755 2.404665,-10.34054 0,-2.851 0.719682,-12.12041 2.516932,-16.75541 1.7973,-4.636 8.987817,-32.80062 12.223717,-42.14563 3.2346,-9.345 9.346774,-40.21134 14.019974,-49.48034 0.358659,-0.71126 0.757007,-1.42332 1.172153,-2.13426 -0.763302,-2.05624 -1.233012,-3.32591 -2.192205,-5.91509 z" style="fill:#0000FF;fill-opacity:1;stroke:#211d1d;stroke-width:0.333325;stroke-miterlimit:10"/><path id="SLEEVES_LEFT_STRIPE_3" d="m 61.840986,167.25705 c -3.197143,12.08272 -6.319062,26.19862 -8.329414,32.00668 -3.235898,9.34501 -10.426416,37.50963 -12.223717,42.14563 -1.797247,4.635 -2.516932,13.9044 -2.516932,16.7554 0,2.85299 -0.495373,7.84455 -2.404666,10.34054 -1.907945,2.49601 -3.707193,15.32975 -3.707193,15.32975 0,0 -1.437338,22.81649 -2.15599,30.65949 -0.719983,7.844 -1.078633,28.52254 0,33.87054 1.077313,5.347 -0.108844,7.41028 5.877669,9.58727 0,0 -0.296861,3.73067 2.036481,6.74924 1.547932,-1.0334 2.702306,-2.07405 3.265373,-3.00462 0.398983,-0.65962 0.702079,-1.36403 0.941585,-2.07874 -0.108499,-0.98628 -0.06277,-1.66588 -0.06277,-1.66588 -5.986513,-2.17699 -4.800364,-4.24027 -5.877669,-9.58727 -1.07864,-5.348 -0.719983,-26.02654 0,-33.87054 0.718644,-7.843 2.15599,-30.65949 2.15599,-30.65949 0,0 1.799244,-12.83374 3.707193,-15.32975 1.909289,-2.49599 2.404666,-7.48755 2.404666,-10.34054 0,-2.851 0.719681,-12.1204 2.516931,-16.7554 1.7973,-4.636 8.987817,-32.80062 12.223717,-42.14563 0.944779,-2.72953 2.171353,-7.4663 3.499562,-12.79349 -0.246134,-5.76283 -0.704553,-12.74222 -1.350814,-19.21319 z" style="fill:#0000FF;fill-opacity:1;stroke:#211d1d;stroke-width:0.333325;stroke-miterlimit:10"/><path id="SLEEVES_LEFT_STRIPE_4" d="m 62.163292,228.01108 c -2.13624,6.3371 -3.95477,11.6221 -4.796052,13.40552 -2.186139,4.6335 -3.061362,13.9005 -3.061362,16.75058 0,2.85206 -0.602522,7.84174 -2.924952,10.33692 -2.320789,2.4952 -4.509956,15.32491 -4.509956,15.32491 0,0 -1.747798,22.80936 -2.621955,30.64984 -0.875774,7.84146 -1.312029,28.5134 0,33.85967 0.127125,0.51854 0.223252,0.99718 0.309034,1.45704 0.749725,-1.68635 1.507509,-3.99917 1.294077,-6.2205 -0.3973,-4.137 -2.707685,-11.62302 0.03621,-19.89402 2.075627,-6.25569 5.076306,-11.71975 6.504186,-15.63274 0.177982,-1.96369 0.356224,-4.07105 0.540808,-6.24948 -0.629896,-3.27698 -2.113739,-6.68164 -2.113739,-6.68163 0,0 2.978404,-13.78723 3.574405,-23.63623 0.596,-9.85 -0.199376,-17.92501 1.588624,-21.27502 1.7879,-3.34799 5.5626,-9.25651 5.5626,-9.25651 0,0 0.287515,-5.85525 0.618067,-12.93835 z" style="fill:#0000FF;fill-opacity:1;stroke:#211d1d;stroke-width:0.36756384;stroke-miterlimit:10"/><path id="SLEEVES_RIGHT_STRIPE_1" d="m 225.38043,133.31263 c 0,0 -1.26868,3.42062 -1.73107,4.67051 3.29872,3.66531 7.64025,8.97149 10.28863,14.22519 4.675,9.269 10.78719,40.13534 14.02118,49.48034 3.236,9.34501 10.42772,37.50963 12.22372,42.14563 1.798,4.635 2.51693,13.90441 2.51693,16.75541 0,2.85299 0.49567,7.84454 2.40467,10.34054 1.91,2.496 3.70719,15.32974 3.70719,15.32974 0,0 1.4392,22.81649 2.1572,30.65949 0.719,7.844 1.079,28.52254 0,33.87054 -1.078,5.347 0.10733,7.41028 -5.87767,9.58727 0,0 0.75674,9.08105 -8.94145,10.36711 1.89033,0.20377 3.77567,0.24627 5.58796,0.0736 10.329,-0.98399 9.53416,-10.44074 9.53416,-10.44074 5.985,-2.17699 4.79967,-4.24027 5.87767,-9.58727 1.079,-5.348 0.719,-26.02654 0,-33.87054 -0.718,-7.843 -2.1572,-30.65949 -2.1572,-30.65949 0,0 -1.79719,-12.83374 -3.70719,-15.32974 -1.909,-2.496 -2.40467,-7.48755 -2.40467,-10.34054 0,-2.851 -0.72014,-12.12041 -2.51814,-16.75541 -1.796,-4.636 -8.98651,-32.80062 -12.22251,-42.14563 -3.234,-9.345 -9.34618,-40.21134 -14.02118,-49.48034 -4.673,-9.27 -14.73823,-18.8957 -14.73823,-18.8957 z" style="fill:#0000FF;fill-opacity:1;stroke:none;stroke-width:0.53930265;stroke-miterlimit:10"/><path id="SLEEVES_RIGHT_STRIPE_2" d="m 221.32337,144.17697 c -0.95742,2.58508 -1.30113,3.51996 -2.18014,5.88733 0.44968,0.75912 0.88198,1.52031 1.26632,2.28273 4.675,9.26902 10.78719,40.13535 14.02118,49.48035 3.236,9.34501 10.42772,37.50963 12.22371,42.14563 1.798,4.635 2.51694,13.9044 2.51694,16.7554 0,2.85299 0.49566,7.84454 2.40466,10.34054 1.91,2.496 3.7072,15.32975 3.7072,15.32975 0,0 1.4392,22.81649 2.15719,30.65949 0.719,7.84399 1.079,28.52253 0,33.87053 -1.07799,5.347 0.10732,7.41029 -5.87766,9.58728 0,0 0.41844,5.2008 -3.58407,8.28716 1.36119,0.45363 2.78194,0.84394 4.22748,1.1625 6.09726,-2.67513 5.53725,-9.44966 5.53725,-9.44966 5.985,-2.17699 4.79967,-4.24028 5.87767,-9.58728 1.079,-5.348 0.719,-26.02654 0,-33.87053 -0.718,-7.843 -2.1572,-30.65949 -2.1572,-30.65949 0,0 -1.79719,-12.83375 -3.70719,-15.32975 -1.909,-2.496 -2.40466,-7.48755 -2.40466,-10.34054 0,-2.851 -0.72015,-12.1204 -2.51814,-16.7554 -1.79601,-4.636 -8.98651,-32.80062 -12.22251,-42.14563 -3.23401,-9.345 -9.34619,-40.21133 -14.02119,-49.48035 -1.40618,-2.78951 -3.30517,-5.58983 -5.26684,-8.17006 z" style="fill:#0000FF;fill-opacity:1;stroke:none;stroke-width:0.53930265;stroke-miterlimit:10"/><path id="SLEEVES_RIGHT_STRIPE_3" transform="matrix(0.61806668,0,0,0.61806668,-46.445,0)" d="m 425.625,262.94336 c -1.06717,8.8345 -1.90467,19.03055 -2.48828,28.48047 3.55176,14.34376 6.86853,28.18061 9.19336,34.89844 5.23568,15.11974 16.87152,60.68864 19.77734,68.18945 2.90907,7.49919 4.07227,22.4966 4.07227,27.10937 0,4.61599 0.80196,12.69207 3.89062,16.73047 3.09028,4.0384 5.99805,24.80274 5.99805,24.80274 0,0 2.32856,36.9159 3.49023,49.60547 1.16331,12.69117 1.74577,46.14799 0,54.80078 -1.74413,8.65117 0.17364,11.98946 -9.50976,15.51172 0,0 0.15976,2.02627 -0.42969,4.67382 1.89294,1.69785 4.63044,3.47811 7.9082,5.13086 2.92614,-4.64049 2.52149,-9.80468 2.52149,-9.80468 9.68342,-3.52226 7.76563,-6.86055 9.50976,-15.51172 1.74579,-8.65279 1.16332,-42.10961 0,-54.80078 -1.16167,-12.68957 -3.49023,-49.60547 -3.49023,-49.60547 0,0 -2.90777,-20.76434 -5.99805,-24.80274 -3.08864,-4.0384 -3.89062,-12.11448 -3.89062,-16.73047 0,-4.61277 -1.16515,-19.61018 -4.07422,-27.10937 -2.90585,-7.50081 -14.53971,-53.06971 -19.77539,-68.18945 -3.92836,-11.35139 -10.48167,-42.29862 -16.70508,-63.37891 z" style="fill:#0000FF;fill-opacity:1;stroke:none;stroke-width:0.53930265;stroke-miterlimit:10"/><path id="SLEEVES_RIGHT_STRIPE_4" transform="matrix(0.61806668,0,0,0.61806668,-46.445,0)" d="m 423.29297,347.3125 c 0.86762,20.83349 1.96289,42.53125 1.96289,42.53125 0,0 6.10906,9.55967 9.00195,14.97656 2.89289,5.42013 1.60568,18.48509 2.56836,34.42188 0.9643,15.93517 5.78711,38.24219 5.78711,38.24219 0,-10e-6 -4.17906,9.56248 -3.85547,15.61523 0.31874,6.0576 7.38881,17.2127 11.83008,30.59961 4.44127,13.38205 0.70092,25.49405 0.0586,32.1875 -0.6407,6.69183 4.17774,14.02344 4.17774,14.02344 0,0 -0.3051,2.1717 -0.16211,5.125 0.22003,-1.56583 0.43209,-3.34801 0.87109,-5.47461 1.78759,-8.65279 1.19122,-42.10961 0,-54.80078 -1.18946,-12.68957 -3.57422,-49.60547 -3.57422,-49.60547 0,0 -2.97827,-20.76434 -6.14257,-24.80274 -3.16262,-4.0384 -3.98243,-12.11448 -3.98243,-16.73047 0,-4.61277 -1.19311,-19.61018 -4.17187,-27.10937 -2.12222,-5.34994 -8.77544,-29.98666 -14.36914,-49.19922 z" style="fill:#0000FF;fill-opacity:1;stroke:none;stroke-width:0.53930265;stroke-miterlimit:10"/>
</g><g id="CUFFS">
   <path id="cuffLeft" d="M 44.7433 329.043 C 20.3479 311.35 0.173748 334.35 0.173748 334.35 C 0.173748 334.35 0.277745 345.133 0.440408 347.004 C 0.604404 348.875 1.10572 352.358 1.36838 353.914 C 1.63104 355.47 1.44838 356.809 2.80835 357.882 C 4.16831 358.956 6.72292 360.122 6.72292 360.122 C 6.72292 360.122 6.40826 364.633 9.33352 367.561 C 12.2588 370.486 18.9186 371.734 28.3717 369.181 C 37.8248 366.63 44.862 362.348 43.2713 352.242 C 43.2713 352.242 46.8326 347.848 45.6139 341.779 C 44.394 335.709 44.7433 329.043 44.7433 329.043 Z" style="fill:none;stroke:#211d1d;stroke-miterlimit:10;stroke-width:0.333325"/>
   <path id="cuffRight" d="M 233.203 329.043 C 257.6 311.35 277.774 334.35 277.774 334.35 C 277.774 334.35 277.669 345.133 277.506 347.004 C 277.342 348.875 276.841 352.358 276.578 353.914 C 276.315 355.47 276.498 356.809 275.138 357.882 C 273.779 358.956 271.223 360.122 271.223 360.122 C 271.223 360.122 271.538 364.633 268.613 367.561 C 265.686 370.486 259.026 371.734 249.575 369.181 C 240.121 366.63 233.084 362.348 234.675 352.242 C 234.675 352.242 231.114 347.848 232.334 341.779 C 233.552 335.709 233.203 329.043 233.203 329.043 Z" style="fill:none;stroke:#211d1d;stroke-miterlimit:10;stroke-width:0.333325"/>
</g><g id="PEAK">
<path id="peak_path" d="M 190.95 61.8148 C 190.95 61.8148 205.447 67.94 202.384 74.0652 C 199.322 80.1917 146.731 86.0582 120.508 66.8107 C 120.508 66.8107 164.407 68.7573 190.95 61.8148 Z" style="fill:none;stroke:#211d1d;stroke-miterlimit:10;stroke-width:0.333325"/>
</g><g id="CUFF-SHADOWS">
   <path id="cuffShadow1" d="M 38.2355 351.3 C 38.2355 351.3 27.8091 349.365 23.1359 351.3 C 18.4627 353.233 13.0695 353.716 11.9908 359.52 C 10.9122 365.322 12.7095 367.3 19.9 367.277 C 27.0904 367.256 42.5487 360.002 38.2355 351.3 Z" style="fill:#none;fill-opacity:0;stroke:#211d1d;stroke-miterlimit:10;stroke-width:0.333325"/>
   <path id="cuffShadow2" d="M 239.709 351.3 C 239.709 351.3 250.135 349.365 254.809 351.3 C 259.482 353.233 264.875 353.716 265.954 359.52 C 267.032 365.322 265.235 367.3 258.045 367.277 C 250.854 367.256 235.396 360.002 239.709 351.3 Z" style="fill:#none;fill-opacity:0;stroke:#211d1d;stroke-miterlimit:10;stroke-width:0.333325"/>
</g></svg>
