<?xml version="1.0" encoding="utf-8"?>
<svg xmlns="http://www.w3.org/2000/svg" xmlns:xlink="http://www.w3.org/1999/xlink" xmlns:cc="http://creativecommons.org/ns#" xmlns:dc="http://purl.org/dc/elements/1.1/" xmlns:rdf="http://www.w3.org/1999/02/22-rdf-syntax-ns#" version="1.1" viewBox="0 0 277.95 370.84" xml:space="preserve" height="600" width="600">
	<metadata><rdf:RDF><cc:Work rdf:about=""><dc:format>image/svg+xml</dc:format><dc:type rdf:resource="http://purl.org/dc/dcmitype/StillImage"/><dc:title/></cc:Work></rdf:RDF></metadata>
	<defs>	</defs>
	<path id="body" d="M 135.753 94.3494 C 105.23 94.0994 99.9609 110.227 99.1798 113.688 C 95.0792 115.478 75.4114 124.063 70.7837 126.165 C 65.6638 128.491 52.9902 133.056 52.9902 133.056 C 52.9902 133.056 63.5819 212.366 61.9219 260.094 C 61.9219 260.094 64.7308 275.941 63.7761 283.579 C 62.8202 291.218 63.5935 294.205 63.7761 300.517 C 63.9575 306.826 63.8775 311.142 63.7761 315.46 C 63.6735 319.778 61.0349 329.075 63.7761 333.394 C 66.5174 337.711 85.5734 348.007 117.427 349.335 C 149.282 350.663 200.476 343.024 206.732 339.371 C 212.99 335.717 216.402 330.405 216.118 329.075 C 215.834 327.747 213.811 310.146 214.539 303.837 C 215.265 297.526 214.664 284.244 214.539 280.59 C 214.412 276.938 214.949 268.302 214.539 265.978 C 214.128 263.652 218.11 252.693 218.393 251.697 C 218.678 250.701 225.323 133.056 225.323 133.056 C 225.323 133.056 200.475 122.845 195.356 120.853 C 191.018 119.164 182.322 115.848 179.35 114.715 C 170.94 97.0422 179.575 97.0242 141.028 94.5449 C 139.191 94.4267 137.434 94.3631 135.753 94.3494 Z" style="fill:#6CFF92;stroke:#211d1d;stroke-miterlimit:10;stroke-width:0.333325"/>
	<path id="cap" d="M 143.192 3.9945 C 140.33 3.95933 137.33 4.10373 134.187 4.43874 C 93.9641 8.72663 94.1677 49.9729 94.1677 49.9729 C 94.1677 49.9729 86.2031 63.4478 120.508 66.8104 C 146.731 86.0579 199.322 80.1919 202.384 74.0654 C 205.447 67.9402 190.951 61.8151 190.951 61.8151 C 191.328 29.8158 176.954 4.40946 143.192 3.9945 Z" style="fill:#FF0000;stroke:#211d1d;stroke-miterlimit:10;stroke-width:0.333325"/>
	<path id="capButton" d="M 146.445 4.10955 C 146.445 4.10955 137.329 -5.35555 129.94 5.05219 C 129.94 5.05219 138.865 3.13091 146.445 4.10955 Z" style="fill:#3b393c;stroke:#211d1d;stroke-miterlimit:10;stroke-width:0.333325"/>
	<path id="armLeft" d="M 6.72296 360.121 C 6.72296 360.121 5.92831 369.577 16.2574 370.561 C 26.5851 371.545 39.2981 365.637 41.6821 361.697 C 44.0647 357.758 43.2714 352.243 43.2714 352.243 C 43.2714 352.243 46.25 347.711 45.8526 343.575 C 45.4553 339.438 43.1447 331.952 45.8886 323.681 C 48.6339 315.407 53.0031 308.513 53.2018 304.769 C 53.4005 301.028 50.8192 295.117 50.8192 295.117 C 50.8192 295.117 53.7978 281.33 54.3938 271.481 C 54.9898 261.631 54.1951 253.556 55.9831 250.206 C 57.771 246.858 61.5456 240.949 61.5456 240.949 C 61.5456 240.949 63.4002 204.36 63.4002 194.021 C 63.4002 183.681 61.6029 157.299 59.0857 150.525 C 56.5697 143.752 52.6138 133.056 52.6138 133.056 C 52.6138 133.056 42.5487 142.682 37.8742 151.952 C 33.201 161.221 27.0891 192.087 23.8545 201.432 C 20.6186 210.777 13.4281 238.941 11.6308 243.577 C 9.83355 248.212 9.11357 257.482 9.11357 260.333 C 9.11357 263.186 8.61758 268.177 6.70829 270.673 C 4.80034 273.169 3.00172 286.003 3.00172 286.003 C 3.00172 286.003 1.56442 308.82 0.845774 316.663 C 0.125792 324.507 -0.232866 345.185 0.845774 350.533 C 1.92308 355.88 0.736443 357.944 6.72296 360.121 Z" style="fill:#FF0000;stroke:#211d1d;stroke-miterlimit:10;stroke-width:0.333325"/>
	<path id="armRight" d="M 271.215 360.121 C 271.215 360.121 272.01 369.577 261.681 370.561 C 251.351 371.545 238.638 365.637 236.256 361.697 C 233.872 357.758 234.667 352.243 234.667 352.243 C 234.667 352.243 231.688 347.711 232.084 343.575 C 232.481 339.438 234.793 331.952 232.048 323.681 C 229.303 315.407 224.933 308.513 224.736 304.769 C 224.536 301.028 227.119 295.117 227.119 295.117 C 227.119 295.117 224.139 281.33 223.543 271.481 C 222.948 261.631 223.743 253.556 221.955 250.206 C 220.167 246.858 216.392 240.949 216.392 240.949 C 216.392 240.949 214.538 204.36 214.538 194.021 C 214.538 183.681 216.335 157.299 218.852 150.525 C 221.368 143.752 225.323 133.056 225.323 133.056 C 225.323 133.056 235.389 142.682 240.062 151.952 C 244.737 161.221 250.849 192.087 254.083 201.432 C 257.319 210.777 264.51 238.941 266.306 243.577 C 268.104 248.212 268.823 257.482 268.823 260.333 C 268.823 263.186 269.319 268.177 271.228 270.673 C 273.138 273.169 274.935 286.003 274.935 286.003 C 274.935 286.003 276.374 308.82 277.092 316.663 C 277.811 324.507 278.171 345.185 277.092 350.533 C 276.014 355.88 277.2 357.944 271.215 360.121 Z" style="fill:#FF0000;stroke:#211d1d;stroke-miterlimit:10;stroke-width:0.333325"/>
<g id="MALTESE-CROSS" transform="matrix(0.69006343,0,0,0.68758147,71.250535,170.88106)">
<path id="MALTESE-CROSS-PATH" style="fill:#FF0000;fill-opacity:1;fill-rule:evenodd;stroke:none" d="M 42.257813,0.00390625 C 43.167969,1.367188 49.058594,6.621094 50.800781,8.363281 c 3.054688,3.058594 5.085938,5.359375 7.902344,8.632813 5.476563,6.367187 8.855469,12.484375 13.390625,19.679687 6.007813,9.527344 15.359375,35.441407 15.359375,50.78125 h -1.101562 c -14.953125,0 -40.515625,-9.792968 -50.121094,-15.652343 C 28.4375,67.050781 23.546875,63.832031 16.601563,58.363281 13.289063,55.757813 10.949219,53.394531 7.992188,50.4375 6.296875,48.738281 1.339844,43.160156 0,42.261719 V 156.17187 c 1.355469,-0.90625 6.453125,-6.64062 8.175781,-8.35937 3.042969,-3.04297 5.285157,-5.13281 8.625,-7.91016 6.554688,-5.4414 11.984375,-8.72656 19.429688,-13.27343 9.605469,-5.85938 35.167969,-15.65235 50.121094,-15.65235 h 1.101562 v 2.20313 c 0,6.79687 -3.996094,21.36328 -5.832031,26.87109 -2.777344,8.33203 -6.140625,15.39453 -10.09375,22.60938 -4.226563,7.71484 -8.296875,12.67578 -13.320313,19.3789 -2.363281,3.15235 -5.035156,5.65625 -7.773437,8.39844 -1.699219,1.69531 -7.277344,6.65234 -8.175781,7.99219 H 156.16797 c -0.91406,-1.36328 -6.80078,-6.61719 -8.54297,-8.35938 -3.05469,-3.05469 -5.08594,-5.35937 -7.90234,-8.63281 -5.47657,-6.36719 -8.85547,-12.48438 -13.39453,-19.67969 -6.01172,-9.53515 -15.35547,-35.42968 -15.35547,-50.78125 h 1.46875 c 7.28906,0 21.32812,3.73047 27.33203,5.73828 8.11328,2.71485 15.8789,6.13282 22.64843,10.05469 7.57813,4.39063 12.71485,8.03516 19.40235,13.30078 3.3125,2.60938 5.65234,4.96875 8.60937,7.92578 1.69532,1.69922 6.65235,7.27735 7.99219,8.17578 V 42.261719 c -1.35547,0.90625 -6.45312,6.636719 -8.17578,8.359375 -2.89453,2.894531 -5.18359,5.191406 -8.42578,7.742187 -6.6875,5.265625 -11.82422,8.910157 -19.40235,13.300782 -6.76953,3.921875 -14.53515,7.339843 -22.64843,10.054687 -5.50782,1.839844 -20.07422,5.738281 -26.59766,5.738281 h -2.20312 c 0,-15.5625 9.40625,-41.3125 15.50781,-51 4.70312,-7.472656 7.83594,-12.929687 13.41797,-19.648437 2.77734,-3.34375 4.86718,-5.585938 7.91015,-8.628906 1.71875,-1.722657 7.45313,-6.820313 8.35938,-8.17578175 H 42.257813"/>
</g><g id="CAP-QUARTERED">
   <path id="CAP_QUARTER_1" transform="matrix(0.61806668,0,0,0.61806668,-46.445,0)" d="m 302.51562,6.5019531 c -3.31296,0.084755 -6.72825,0.303028 -10.26171,0.6796875 -65.0802,6.9375844 -64.75,73.6718754 -64.75,73.6718754 0,0 -11.28098,19.099604 32.78906,26.005864 0.18149,-3.82046 1.26172,-6.39063 1.26172,-6.39063 0,0 -0.24385,-68.555283 40.96093,-93.9667969 z" style="fill:#6CFF92;fill-opacity:1;stroke:#211d1d;stroke-width:0.53930265;stroke-miterlimit:10"/>
   <path id="CAP_QUARTER_2" transform="matrix(0.61806668,0,0,0.61806668,-46.445,0)" d="m 306.82227,6.4628906 c -0.87494,-0.010753 -1.75933,-0.00816 -2.65039,0.00195 26.46017,17.5780894 39.20506,55.0295084 40.64843,99.9902394 23.20308,-2.75102 39.27344,-6.44141 39.27344,-6.44141 C 384.70379,48.240463 361.44859,7.1342735 306.82227,6.4628906 Z" style="fill:#6CFF92;fill-opacity:1;stroke:#211d1d;stroke-width:0.53930265;stroke-miterlimit:10"/>
</g><g id="COLLAR">
	<path id="collarMain" d="M 140.112 147.266 C 140.112 147.266 139.195 140.389 142.863 137.868 C 146.529 135.346 158.909 125.719 163.722 120.676 C 168.535 115.632 169.911 107.152 168.994 104.171 C 168.078 101.191 162.721 97.2952 156.804 97.2952 C 150.885 97.2952 128.65 96.6073 124.754 97.2952 C 120.856 97.9832 113.522 99.5872 111.687 102.338 C 109.854 105.088 105.04 116.473 111.687 122.128 C 118.335 127.782 127.504 131.449 131.402 136.034 C 135.297 140.618 137.132 148.413 137.132 148.413 C 137.132 148.413 109.547 145.226 99.041 114.383 C 99.041 114.383 101.832 92.022 141.028 94.5447 C 180.227 97.0659 170.621 97.0286 179.779 115.615 C 179.779 115.615 167.39 143.37 140.112 147.266 Z" style="fill:none;stroke:#000000;stroke-miterlimit:10;stroke-width:0.5"/>
	<path id="collarBack" d="M 135.046 96.9931 C 130.254 96.9729 126.215 97.0369 124.754 97.2949 C 120.856 97.9829 113.522 99.5876 111.687 102.338 C 110.685 103.842 108.803 107.926 108.378 112.243 C 109.848 110.446 112.251 108.955 115.268 107.239 C 118.435 105.439 127.786 104.203 137.769 104.205 C 149.084 104.207 161.209 105.798 166.063 109.959 C 167.21 110.942 167.778 112.179 167.897 113.59 C 169.259 109.757 169.546 105.966 168.994 104.171 C 168.078 101.191 162.721 97.2949 156.804 97.2949 C 153.104 97.2949 143.031 97.0266 135.046 96.9931 Z" style="fill:none;stroke:#000000;stroke-miterlimit:10;stroke-width:0.5"/>
</g><g id="CUFFS">
   <path id="cuffLeft" d="M 44.7433 329.043 C 20.3479 311.35 0.173748 334.35 0.173748 334.35 C 0.173748 334.35 0.277745 345.133 0.440408 347.004 C 0.604404 348.875 1.10572 352.358 1.36838 353.914 C 1.63104 355.47 1.44838 356.809 2.80835 357.882 C 4.16831 358.956 6.72292 360.122 6.72292 360.122 C 6.72292 360.122 6.40826 364.633 9.33352 367.561 C 12.2588 370.486 18.9186 371.734 28.3717 369.181 C 37.8248 366.63 44.862 362.348 43.2713 352.242 C 43.2713 352.242 46.8326 347.848 45.6139 341.779 C 44.394 335.709 44.7433 329.043 44.7433 329.043 Z" style="fill:none;stroke:#211d1d;stroke-miterlimit:10;stroke-width:0.333325"/>
   <path id="cuffRight" d="M 233.203 329.043 C 257.6 311.35 277.774 334.35 277.774 334.35 C 277.774 334.35 277.669 345.133 277.506 347.004 C 277.342 348.875 276.841 352.358 276.578 353.914 C 276.315 355.47 276.498 356.809 275.138 357.882 C 273.779 358.956 271.223 360.122 271.223 360.122 C 271.223 360.122 271.538 364.633 268.613 367.561 C 265.686 370.486 259.026 371.734 249.575 369.181 C 240.121 366.63 233.084 362.348 234.675 352.242 C 234.675 352.242 231.114 347.848 232.334 341.779 C 233.552 335.709 233.203 329.043 233.203 329.043 Z" style="fill:none;stroke:#211d1d;stroke-miterlimit:10;stroke-width:0.333325"/>
</g><g id="PEAK">
<path id="peak_path" d="M 190.95 61.8148 C 190.95 61.8148 205.447 67.94 202.384 74.0652 C 199.322 80.1917 146.731 86.0582 120.508 66.8107 C 120.508 66.8107 164.407 68.7573 190.95 61.8148 Z" style="fill:none;stroke:#211d1d;stroke-miterlimit:10;stroke-width:0.333325"/>
</g><g id="CUFF-SHADOWS">
   <path id="cuffShadow1" d="M 38.2355 351.3 C 38.2355 351.3 27.8091 349.365 23.1359 351.3 C 18.4627 353.233 13.0695 353.716 11.9908 359.52 C 10.9122 365.322 12.7095 367.3 19.9 367.277 C 27.0904 367.256 42.5487 360.002 38.2355 351.3 Z" style="fill:#none;fill-opacity:0;stroke:#211d1d;stroke-miterlimit:10;stroke-width:0.333325"/>
   <path id="cuffShadow2" d="M 239.709 351.3 C 239.709 351.3 250.135 349.365 254.809 351.3 C 259.482 353.233 264.875 353.716 265.954 359.52 C 267.032 365.322 265.235 367.3 258.045 367.277 C 250.854 367.256 235.396 360.002 239.709 351.3 Z" style="fill:#none;fill-opacity:0;stroke:#211d1d;stroke-miterlimit:10;stroke-width:0.333325"/>
</g></svg>
