<?xml version="1.0" encoding="utf-8"?>
<svg xmlns="http://www.w3.org/2000/svg" xmlns:xlink="http://www.w3.org/1999/xlink" xmlns:cc="http://creativecommons.org/ns#" xmlns:dc="http://purl.org/dc/elements/1.1/" xmlns:rdf="http://www.w3.org/1999/02/22-rdf-syntax-ns#" version="1.1" viewBox="0 0 277.95 370.84" xml:space="preserve" height="600" width="600">
	<metadata><rdf:RDF><cc:Work rdf:about=""><dc:format>image/svg+xml</dc:format><dc:type rdf:resource="http://purl.org/dc/dcmitype/StillImage"/><dc:title/></cc:Work></rdf:RDF></metadata>
	<defs>	</defs>
	<path id="body" d="M 135.753 94.3494 C 105.23 94.0994 99.9609 110.227 99.1798 113.688 C 95.0792 115.478 75.4114 124.063 70.7837 126.165 C 65.6638 128.491 52.9902 133.056 52.9902 133.056 C 52.9902 133.056 63.5819 212.366 61.9219 260.094 C 61.9219 260.094 64.7308 275.941 63.7761 283.579 C 62.8202 291.218 63.5935 294.205 63.7761 300.517 C 63.9575 306.826 63.8775 311.142 63.7761 315.46 C 63.6735 319.778 61.0349 329.075 63.7761 333.394 C 66.5174 337.711 85.5734 348.007 117.427 349.335 C 149.282 350.663 200.476 343.024 206.732 339.371 C 212.99 335.717 216.402 330.405 216.118 329.075 C 215.834 327.747 213.811 310.146 214.539 303.837 C 215.265 297.526 214.664 284.244 214.539 280.59 C 214.412 276.938 214.949 268.302 214.539 265.978 C 214.128 263.652 218.11 252.693 218.393 251.697 C 218.678 250.701 225.323 133.056 225.323 133.056 C 225.323 133.056 200.475 122.845 195.356 120.853 C 191.018 119.164 182.322 115.848 179.35 114.715 C 170.94 97.0422 179.575 97.0242 141.028 94.5449 C 139.191 94.4267 137.434 94.3631 135.753 94.3494 Z" style="fill:#C0FBFE;stroke:#211d1d;stroke-miterlimit:10;stroke-width:0.333325"/>
	<path id="cap" d="M 143.192 3.9945 C 140.33 3.95933 137.33 4.10373 134.187 4.43874 C 93.9641 8.72663 94.1677 49.9729 94.1677 49.9729 C 94.1677 49.9729 86.2031 63.4478 120.508 66.8104 C 146.731 86.0579 199.322 80.1919 202.384 74.0654 C 205.447 67.9402 190.951 61.8151 190.951 61.8151 C 191.328 29.8158 176.954 4.40946 143.192 3.9945 Z" style="fill:#FFA6D2;stroke:#211d1d;stroke-miterlimit:10;stroke-width:0.333325"/>
	<path id="capButton" d="M 146.445 4.10955 C 146.445 4.10955 137.329 -5.35555 129.94 5.05219 C 129.94 5.05219 138.865 3.13091 146.445 4.10955 Z" style="fill:#3b393c;stroke:#211d1d;stroke-miterlimit:10;stroke-width:0.333325"/>
	<path id="armLeft" d="M 6.72296 360.121 C 6.72296 360.121 5.92831 369.577 16.2574 370.561 C 26.5851 371.545 39.2981 365.637 41.6821 361.697 C 44.0647 357.758 43.2714 352.243 43.2714 352.243 C 43.2714 352.243 46.25 347.711 45.8526 343.575 C 45.4553 339.438 43.1447 331.952 45.8886 323.681 C 48.6339 315.407 53.0031 308.513 53.2018 304.769 C 53.4005 301.028 50.8192 295.117 50.8192 295.117 C 50.8192 295.117 53.7978 281.33 54.3938 271.481 C 54.9898 261.631 54.1951 253.556 55.9831 250.206 C 57.771 246.858 61.5456 240.949 61.5456 240.949 C 61.5456 240.949 63.4002 204.36 63.4002 194.021 C 63.4002 183.681 61.6029 157.299 59.0857 150.525 C 56.5697 143.752 52.6138 133.056 52.6138 133.056 C 52.6138 133.056 42.5487 142.682 37.8742 151.952 C 33.201 161.221 27.0891 192.087 23.8545 201.432 C 20.6186 210.777 13.4281 238.941 11.6308 243.577 C 9.83355 248.212 9.11357 257.482 9.11357 260.333 C 9.11357 263.186 8.61758 268.177 6.70829 270.673 C 4.80034 273.169 3.00172 286.003 3.00172 286.003 C 3.00172 286.003 1.56442 308.82 0.845774 316.663 C 0.125792 324.507 -0.232866 345.185 0.845774 350.533 C 1.92308 355.88 0.736443 357.944 6.72296 360.121 Z" style="fill:#FFFFFF;stroke:#211d1d;stroke-miterlimit:10;stroke-width:0.333325"/>
	<path id="armRight" d="M 271.215 360.121 C 271.215 360.121 272.01 369.577 261.681 370.561 C 251.351 371.545 238.638 365.637 236.256 361.697 C 233.872 357.758 234.667 352.243 234.667 352.243 C 234.667 352.243 231.688 347.711 232.084 343.575 C 232.481 339.438 234.793 331.952 232.048 323.681 C 229.303 315.407 224.933 308.513 224.736 304.769 C 224.536 301.028 227.119 295.117 227.119 295.117 C 227.119 295.117 224.139 281.33 223.543 271.481 C 222.948 261.631 223.743 253.556 221.955 250.206 C 220.167 246.858 216.392 240.949 216.392 240.949 C 216.392 240.949 214.538 204.36 214.538 194.021 C 214.538 183.681 216.335 157.299 218.852 150.525 C 221.368 143.752 225.323 133.056 225.323 133.056 C 225.323 133.056 235.389 142.682 240.062 151.952 C 244.737 161.221 250.849 192.087 254.083 201.432 C 257.319 210.777 264.51 238.941 266.306 243.577 C 268.104 248.212 268.823 257.482 268.823 260.333 C 268.823 263.186 269.319 268.177 271.228 270.673 C 273.138 273.169 274.935 286.003 274.935 286.003 C 274.935 286.003 276.374 308.82 277.092 316.663 C 277.811 324.507 278.171 345.185 277.092 350.533 C 276.014 355.88 277.2 357.944 271.215 360.121 Z" style="fill:#FFFFFF;stroke:#211d1d;stroke-miterlimit:10;stroke-width:0.333325"/>
<g id="SHAMROCK">
<path id="SHAMROCK_PATH" d="m 155.83074,320.7328 c -4.26358,-0.74398 -8.76396,-4.21287 -12.76458,-9.83905 -3.76622,-5.29585 -7.02008,-13.03106 -8.47872,-20.155 -1.08479,-5.30067 -1.35162,-7.88472 -1.46397,-14.18317 -0.0823,-4.48994 -0.12592,-5.30129 -0.31478,-5.30129 -0.26636,0 -0.55886,0.42733 -3.06499,4.49804 -2.25577,3.66393 -2.25867,3.66844 -4.05728,6.2652 -3.02625,4.36995 -7.25593,9.3496 -10.06086,11.84565 -3.10809,2.76557 -6.2617,4.58055 -8.88552,5.11371 -1.18648,0.24115 -4.01127,0.1115 -5.21615,-0.23959 -1.539031,-0.44806 -3.23158,-1.41384 -4.252921,-2.42599 -1.775845,-1.76063 -2.566185,-3.40639 -4.127495,-8.59104 -1.608285,-5.34034 -2.484826,-7.06561 -4.616615,-9.08854 -1.085749,-1.03035 -2.135178,-1.62865 -4.470847,-2.54838 -2.245594,-0.88446 -3.768162,-1.86451 -5.240364,-3.37383 -1.51482,-1.55293 -2.464003,-2.93073 -3.326985,-4.82895 -1.251857,-2.75441 -1.709014,-5.3366 -1.464939,-8.27325 0.169497,-2.05276 0.588882,-3.56161 1.623782,-5.86355 2.376833,-5.285 7.348907,-9.95127 14.960777,-14.03993 3.771067,-2.02579 9.074871,-4.23464 13.540877,-5.63931 1.19665,-0.3765 2.26884,-0.77758 2.38361,-0.89177 0.43585,-0.43407 0.0678,-0.65333 -1.58068,-0.94587 -5.470395,-0.97066 -12.192163,-2.73155 -16.179218,-4.23864 -6.286403,-2.3761 -10.340288,-4.82656 -13.170404,-7.96131 -1.386001,-1.5351 -2.947311,-3.98235 -3.57445,-5.60275 -0.484277,-1.24956 -1.022309,-3.43077 -1.041196,-4.2153 0,-0.39517 -0.04843,-0.42525 -0.125912,-0.16751 -0.08717,0.23441 -0.135598,0.11202 -0.203397,-0.48177 -0.106541,-0.97921 0.04843,-2.54802 0.188868,-2.08138 0.0678,0.20951 0.140441,-0.0311 0.213082,-0.71229 0.450378,-4.28116 3.252891,-8.84662 8.186223,-13.34445 5.328502,-4.8583 8.413348,-8.87632 9.374154,-12.20928 0.179183,-0.6148 0.29541,-1.86114 0.382579,-4.09981 0.12107,-3.05193 0.154969,-3.30034 0.638762,-4.8539 0.65668,-2.09896 1.693033,-3.93105 3.110029,-5.49747 1.408762,-1.55734 2.536159,-2.4402 4.150255,-3.25035 4.906695,-2.46213 10.631335,-1.72619 16.626695,2.13739 1.90417,1.22721 2.6858,1.82852 4.65777,3.58391 3.43547,3.05831 6.32176,6.37514 10.49575,12.06082 1.85139,2.52177 5.42438,8.25064 7.57506,12.14565 0.84894,1.53691 1.66252,2.9309 1.80829,3.09778 0.27604,0.31686 0.70414,0.26396 0.80293,-0.099 2.7938,-10.30584 7.22784,-20.09728 11.68803,-25.8107 1.31433,-1.68388 3.37929,-3.89781 4.47376,-4.79674 3.10373,-2.54916 7.07965,-4.15317 11.49432,-4.63718 0.51769,-0.0565 0.97727,-0.16595 1.02134,-0.2427 0.0484,-0.0768 0.56031,-0.1395 1.14677,-0.1395 0.58646,0 1.01892,0.0519 0.96129,0.11253 -0.0581,0.0622 0.55498,0.23285 1.36227,0.38013 6.28204,1.14408 10.22115,6.11906 12.2648,15.49138 0.78163,3.58458 1.32208,4.88573 2.6766,6.44702 1.47705,1.7026 2.649,2.38222 7.15375,4.14866 2.6795,1.05067 4.11926,1.75238 5.46846,2.66464 3.08242,2.0847 5.5871,5.59471 6.39875,8.96724 0.37774,1.57409 0.41648,4.34993 0.0775,5.73411 -1.46204,5.97878 -6.57552,11.20487 -15.62085,15.96537 -5.26845,2.77251 -8.96688,4.30828 -16.12692,6.69584 -1.19616,0.3988 -2.27368,0.82887 -2.39475,0.95531 -0.35352,0.3682 0,0.60416 2.09499,1.35934 4.97062,1.80206 11.71224,5.00159 15.8194,7.5077 1.81361,1.10679 5.30186,3.60336 6.71063,4.80276 3.72651,3.17313 6.31884,6.49904 8.12471,10.42356 0.81989,1.78106 1.89304,4.92427 1.90515,5.5792 0,0.4823 0.41648,2.02626 0.45522,1.72257 0,-0.13276 0.0823,0.12031 0.14528,0.56226 0.12592,0.891 0,2.61906 -0.15496,2.32792 -0.0581,-0.10216 -0.15013,0.11773 -0.20824,0.48748 -0.26636,1.78843 -1.26445,3.80328 -2.59089,5.23522 -1.77972,1.9215 -4.68489,3.70874 -8.97704,5.52325 -4.89411,2.06888 -5.02341,2.13718 -5.97598,3.15866 -1.14774,1.23026 -1.92888,3.13636 -2.726,6.65493 -1.11239,4.90923 -1.40586,5.94434 -2.13809,7.53664 -1.30173,2.83267 -3.47807,4.70215 -6.29851,5.41071 -1.58116,0.39724 -5.75466,0.39672 -7.98912,-0.001 -4.46745,-0.7949 -8.84241,-2.35878 -11.25121,-4.02196 -2.62914,-1.81581 -4.13912,-3.21016 -5.81375,-5.37042 -0.8809,-1.13578 -2.70662,-4.06864 -3.53135,-5.67229 -0.6436,-1.25179 -3.70617,-7.8116 -3.70617,-7.93866 0,-0.19084 -1.98602,-4.34909 -2.17925,-4.56182 -0.17918,-0.19499 -0.24214,-0.19499 -0.46006,-0.002 -0.22277,0.19965 -0.24214,0.46932 -0.15497,2.35162 0.66346,14.1564 5.85733,24.7624 15.37096,31.38803 1.89643,1.32096 5.51059,3.16955 8.30003,4.24563 0.61212,0.23648 0.74094,0.37028 1.01843,1.06063 0.46975,1.17379 0.64457,2.44819 0.56515,4.15566 -0.0872,1.85626 -0.35836,2.8165 -1.17728,4.15209 -1.31529,2.14688 -3.81852,3.62669 -7.25786,4.29065 -1.38842,0.26811 -1.41312,0.26811 -3.00058,-0.0104 z" style="fill:#FFA6D2;stroke-width:5.01143"/>
</g><g id="COLLAR">
	<path id="collarMain" d="M 140.112 147.266 C 140.112 147.266 139.195 140.389 142.863 137.868 C 146.529 135.346 158.909 125.719 163.722 120.676 C 168.535 115.632 169.911 107.152 168.994 104.171 C 168.078 101.191 162.721 97.2952 156.804 97.2952 C 150.885 97.2952 128.65 96.6073 124.754 97.2952 C 120.856 97.9832 113.522 99.5872 111.687 102.338 C 109.854 105.088 105.04 116.473 111.687 122.128 C 118.335 127.782 127.504 131.449 131.402 136.034 C 135.297 140.618 137.132 148.413 137.132 148.413 C 137.132 148.413 109.547 145.226 99.041 114.383 C 99.041 114.383 101.832 92.022 141.028 94.5447 C 180.227 97.0659 170.621 97.0286 179.779 115.615 C 179.779 115.615 167.39 143.37 140.112 147.266 Z" style="fill:none;stroke:#000000;stroke-miterlimit:10;stroke-width:0.5"/>
	<path id="collarBack" d="M 135.046 96.9931 C 130.254 96.9729 126.215 97.0369 124.754 97.2949 C 120.856 97.9829 113.522 99.5876 111.687 102.338 C 110.685 103.842 108.803 107.926 108.378 112.243 C 109.848 110.446 112.251 108.955 115.268 107.239 C 118.435 105.439 127.786 104.203 137.769 104.205 C 149.084 104.207 161.209 105.798 166.063 109.959 C 167.21 110.942 167.778 112.179 167.897 113.59 C 169.259 109.757 169.546 105.966 168.994 104.171 C 168.078 101.191 162.721 97.2949 156.804 97.2949 C 153.104 97.2949 143.031 97.0266 135.046 96.9931 Z" style="fill:none;stroke:#000000;stroke-miterlimit:10;stroke-width:0.5"/>
</g><g id="CUFFS">
   <path id="cuffLeft" d="M 44.7433 329.043 C 20.3479 311.35 0.173748 334.35 0.173748 334.35 C 0.173748 334.35 0.277745 345.133 0.440408 347.004 C 0.604404 348.875 1.10572 352.358 1.36838 353.914 C 1.63104 355.47 1.44838 356.809 2.80835 357.882 C 4.16831 358.956 6.72292 360.122 6.72292 360.122 C 6.72292 360.122 6.40826 364.633 9.33352 367.561 C 12.2588 370.486 18.9186 371.734 28.3717 369.181 C 37.8248 366.63 44.862 362.348 43.2713 352.242 C 43.2713 352.242 46.8326 347.848 45.6139 341.779 C 44.394 335.709 44.7433 329.043 44.7433 329.043 Z" style="fill:#FFA6D2;stroke:#211d1d;stroke-miterlimit:10;stroke-width:0.333325"/>
   <path id="cuffRight" d="M 233.203 329.043 C 257.6 311.35 277.774 334.35 277.774 334.35 C 277.774 334.35 277.669 345.133 277.506 347.004 C 277.342 348.875 276.841 352.358 276.578 353.914 C 276.315 355.47 276.498 356.809 275.138 357.882 C 273.779 358.956 271.223 360.122 271.223 360.122 C 271.223 360.122 271.538 364.633 268.613 367.561 C 265.686 370.486 259.026 371.734 249.575 369.181 C 240.121 366.63 233.084 362.348 234.675 352.242 C 234.675 352.242 231.114 347.848 232.334 341.779 C 233.552 335.709 233.203 329.043 233.203 329.043 Z" style="fill:#FFA6D2;stroke:#211d1d;stroke-miterlimit:10;stroke-width:0.333325"/>
</g><g id="PEAK">
<path id="peak_path" d="M 190.95 61.8148 C 190.95 61.8148 205.447 67.94 202.384 74.0652 C 199.322 80.1917 146.731 86.0582 120.508 66.8107 C 120.508 66.8107 164.407 68.7573 190.95 61.8148 Z" style="fill:#C0FBFE;stroke:#211d1d;stroke-miterlimit:10;stroke-width:0.333325"/>
</g><g id="CUFF-SHADOWS">
   <path id="cuffShadow1" d="M 38.2355 351.3 C 38.2355 351.3 27.8091 349.365 23.1359 351.3 C 18.4627 353.233 13.0695 353.716 11.9908 359.52 C 10.9122 365.322 12.7095 367.3 19.9 367.277 C 27.0904 367.256 42.5487 360.002 38.2355 351.3 Z" style="fill:#none;fill-opacity:0;stroke:#211d1d;stroke-miterlimit:10;stroke-width:0.333325"/>
   <path id="cuffShadow2" d="M 239.709 351.3 C 239.709 351.3 250.135 349.365 254.809 351.3 C 259.482 353.233 264.875 353.716 265.954 359.52 C 267.032 365.322 265.235 367.3 258.045 367.277 C 250.854 367.256 235.396 360.002 239.709 351.3 Z" style="fill:#none;fill-opacity:0;stroke:#211d1d;stroke-miterlimit:10;stroke-width:0.333325"/>
</g></svg>
