<?xml version="1.0" encoding="UTF-8" standalone="no"?>
<svg
   xmlns:dc="http://purl.org/dc/elements/1.1/"
   xmlns:cc="http://creativecommons.org/ns#"
   xmlns:rdf="http://www.w3.org/1999/02/22-rdf-syntax-ns#"
   xmlns:svg="http://www.w3.org/2000/svg"
   xmlns="http://www.w3.org/2000/svg"
   xmlns:sodipodi="http://sodipodi.sourceforge.net/DTD/sodipodi-0.dtd"
   xmlns:inkscape="http://www.inkscape.org/namespaces/inkscape"
   inkscape:version="1.0 (4035a4fb49, 2020-05-01)"
   sodipodi:docname="30038.svg"
   id="svg22"
   width="600"
   height="600"
   xml:space="preserve"
   viewBox="0 0 277.95 370.84"
   version="1.1"><sodipodi:namedview
   inkscape:current-layer="svg22"
   inkscape:window-maximized="1"
   inkscape:window-y="-8"
   inkscape:window-x="-8"
   inkscape:cy="368.79964"
   inkscape:cx="324.41926"
   inkscape:zoom="1.3812152"
   showgrid="true"
   id="namedview24"
   inkscape:window-height="837"
   inkscape:window-width="1600"
   inkscape:pageshadow="2"
   inkscape:pageopacity="0"
   guidetolerance="10"
   gridtolerance="10"
   objecttolerance="10"
   borderopacity="1"
   bordercolor="#666666"
   pagecolor="#ffffff"><inkscape:grid
     id="grid849"
     type="xygrid" /></sodipodi:namedview>
	<metadata
   id="metadata2"><rdf:RDF><cc:Work
       rdf:about=""><dc:format>image/svg+xml</dc:format><dc:type
         rdf:resource="http://purl.org/dc/dcmitype/StillImage" /><dc:title></dc:title></cc:Work></rdf:RDF></metadata>
	<defs
   id="defs4">	</defs>
	<path
   style="fill:#5576d1;stroke:#211d1d;stroke-width:0.332816;stroke-miterlimit:10;fill-opacity:1"
   d="M 135.753,94.349391 C 105.23,94.100154 99.9609,110.17852 99.1798,113.62895 c -4.1006,1.78454 -23.7684,10.34333 -28.3961,12.43891 -5.1199,2.3189 -17.7935,6.86997 -17.7935,6.86997 0,0 10.5917,79.06788 8.9317,126.65017 0,0 2.8089,15.79862 1.8542,23.4133 -0.9559,7.61568 -0.1826,10.59356 0,16.8863 0.1814,6.28973 0.1014,10.59256 0,14.89738 -0.1026,4.30481 -2.7412,13.57343 0,17.87925 2.7413,4.30382 21.7973,14.56839 53.6509,15.89233 31.855,1.32395 83.049,-6.29173 89.305,-9.93358 6.258,-3.64284 9.67,-8.93863 9.386,-10.26457 -0.284,-1.32394 -2.307,-18.87121 -1.579,-25.16095 0.726,-6.29173 0.125,-19.53319 0,-23.17603 -0.127,-3.64085 0.41,-12.25049 0,-14.56739 -0.411,-2.3189 3.571,-13.24445 3.854,-14.23741 0.285,-0.99295 6.93,-118.2788 6.93,-118.2788 0,0 -24.848,-10.17983 -29.967,-12.16575 -4.338,-1.68384 -13.034,-4.98972 -16.006,-6.11926 -8.41,-17.618849 0.225,-17.636795 -38.322,-20.108526 -1.837,-0.117839 -3.594,-0.181245 -5.275,-0.194903 z"
   id="body" />
	<path
   style="fill:#5576d1;stroke:#001d1d;stroke-miterlimit:10;stroke-width:0.333325;stroke-opacity:1;fill-opacity:1"
   d="M 143.192 3.9945 C 140.33 3.95933 137.33 4.10373 134.187 4.43874 C 93.9641 8.72663 94.1677 49.9729 94.1677 49.9729 C 94.1677 49.9729 86.2031 63.4478 120.508 66.8104 C 146.731 86.0579 199.322 80.1919 202.384 74.0654 C 205.447 67.9402 190.951 61.8151 190.951 61.8151 C 191.328 29.8158 176.954 4.40946 143.192 3.9945 Z"
   id="cap" />
	<path
   style="fill:#3b393c;stroke:#211d1d;stroke-miterlimit:10;stroke-width:0.333325"
   d="M 146.445 4.10955 C 146.445 4.10955 137.329 -5.35555 129.94 5.05219 C 129.94 5.05219 138.865 3.13091 146.445 4.10955 Z"
   id="capButton" />
	<path
   style="fill:#5576d1;stroke:#211d1d;stroke-miterlimit:10;stroke-width:0.333325;fill-opacity:1"
   d="M 6.72296 360.121 C 6.72296 360.121 5.92831 369.577 16.2574 370.561 C 26.5851 371.545 39.2981 365.637 41.6821 361.697 C 44.0647 357.758 43.2714 352.243 43.2714 352.243 C 43.2714 352.243 46.25 347.711 45.8526 343.575 C 45.4553 339.438 43.1447 331.952 45.8886 323.681 C 48.6339 315.407 53.0031 308.513 53.2018 304.769 C 53.4005 301.028 50.8192 295.117 50.8192 295.117 C 50.8192 295.117 53.7978 281.33 54.3938 271.481 C 54.9898 261.631 54.1951 253.556 55.9831 250.206 C 57.771 246.858 61.5456 240.949 61.5456 240.949 C 61.5456 240.949 63.4002 204.36 63.4002 194.021 C 63.4002 183.681 61.6029 157.299 59.0857 150.525 C 56.5697 143.752 52.6138 133.056 52.6138 133.056 C 52.6138 133.056 42.5487 142.682 37.8742 151.952 C 33.201 161.221 27.0891 192.087 23.8545 201.432 C 20.6186 210.777 13.4281 238.941 11.6308 243.577 C 9.83355 248.212 9.11357 257.482 9.11357 260.333 C 9.11357 263.186 8.61758 268.177 6.70829 270.673 C 4.80034 273.169 3.00172 286.003 3.00172 286.003 C 3.00172 286.003 1.56442 308.82 0.845774 316.663 C 0.125792 324.507 -0.232866 345.185 0.845774 350.533 C 1.92308 355.88 0.736443 357.944 6.72296 360.121 Z"
   id="armLeft" />
	<path
   style="fill:#5576d1;stroke:#211d1d;stroke-miterlimit:10;stroke-width:0.333325;fill-opacity:1"
   d="M 271.215 360.121 C 271.215 360.121 272.01 369.577 261.681 370.561 C 251.351 371.545 238.638 365.637 236.256 361.697 C 233.872 357.758 234.667 352.243 234.667 352.243 C 234.667 352.243 231.688 347.711 232.084 343.575 C 232.481 339.438 234.793 331.952 232.048 323.681 C 229.303 315.407 224.933 308.513 224.736 304.769 C 224.536 301.028 227.119 295.117 227.119 295.117 C 227.119 295.117 224.139 281.33 223.543 271.481 C 222.948 261.631 223.743 253.556 221.955 250.206 C 220.167 246.858 216.392 240.949 216.392 240.949 C 216.392 240.949 214.538 204.36 214.538 194.021 C 214.538 183.681 216.335 157.299 218.852 150.525 C 221.368 143.752 225.323 133.056 225.323 133.056 C 225.323 133.056 235.389 142.682 240.062 151.952 C 244.737 161.221 250.849 192.087 254.083 201.432 C 257.319 210.777 264.51 238.941 266.306 243.577 C 268.104 248.212 268.823 257.482 268.823 260.333 C 268.823 263.186 269.319 268.177 271.228 270.673 C 273.138 273.169 274.935 286.003 274.935 286.003 C 274.935 286.003 276.374 308.82 277.092 316.663 C 277.811 324.507 278.171 345.185 277.092 350.533 C 276.014 355.88 277.2 357.944 271.215 360.121 Z"
   id="armRight" />
<g
   style="fill:#5576d1;fill-opacity:1"
   id="COLLAR">
	<path
   style="fill:#5576d1;stroke:#000000;stroke-miterlimit:10;stroke-width:0.5;fill-opacity:1"
   d="M 140.112 147.266 C 140.112 147.266 139.195 140.389 142.863 137.868 C 146.529 135.346 158.909 125.719 163.722 120.676 C 168.535 115.632 169.911 107.152 168.994 104.171 C 168.078 101.191 162.721 97.2952 156.804 97.2952 C 150.885 97.2952 128.65 96.6073 124.754 97.2952 C 120.856 97.9832 113.522 99.5872 111.687 102.338 C 109.854 105.088 105.04 116.473 111.687 122.128 C 118.335 127.782 127.504 131.449 131.402 136.034 C 135.297 140.618 137.132 148.413 137.132 148.413 C 137.132 148.413 109.547 145.226 99.041 114.383 C 99.041 114.383 101.832 92.022 141.028 94.5447 C 180.227 97.0659 170.621 97.0286 179.779 115.615 C 179.779 115.615 167.39 143.37 140.112 147.266 Z"
   id="collarMain" />
	<path
   style="fill:#5576d1;stroke:#000000;stroke-miterlimit:10;stroke-width:0.5;fill-opacity:1"
   d="M 135.046 96.9931 C 130.254 96.9729 126.215 97.0369 124.754 97.2949 C 120.856 97.9829 113.522 99.5876 111.687 102.338 C 110.685 103.842 108.803 107.926 108.378 112.243 C 109.848 110.446 112.251 108.955 115.268 107.239 C 118.435 105.439 127.786 104.203 137.769 104.205 C 149.084 104.207 161.209 105.798 166.063 109.959 C 167.21 110.942 167.778 112.179 167.897 113.59 C 169.259 109.757 169.546 105.966 168.994 104.171 C 168.078 101.191 162.721 97.2949 156.804 97.2949 C 153.104 97.2949 143.031 97.0266 135.046 96.9931 Z"
   id="collarBack" />
</g><g
   id="CUFFS">
   <path
   style="fill:none;stroke:#211d1d;stroke-miterlimit:10;stroke-width:0.333325"
   d="M 44.7433 329.043 C 20.3479 311.35 0.173748 334.35 0.173748 334.35 C 0.173748 334.35 0.277745 345.133 0.440408 347.004 C 0.604404 348.875 1.10572 352.358 1.36838 353.914 C 1.63104 355.47 1.44838 356.809 2.80835 357.882 C 4.16831 358.956 6.72292 360.122 6.72292 360.122 C 6.72292 360.122 6.40826 364.633 9.33352 367.561 C 12.2588 370.486 18.9186 371.734 28.3717 369.181 C 37.8248 366.63 44.862 362.348 43.2713 352.242 C 43.2713 352.242 46.8326 347.848 45.6139 341.779 C 44.394 335.709 44.7433 329.043 44.7433 329.043 Z"
   id="cuffLeft" />
   <path
   style="fill:none;stroke:#211d1d;stroke-miterlimit:10;stroke-width:0.333325"
   d="M 233.203 329.043 C 257.6 311.35 277.774 334.35 277.774 334.35 C 277.774 334.35 277.669 345.133 277.506 347.004 C 277.342 348.875 276.841 352.358 276.578 353.914 C 276.315 355.47 276.498 356.809 275.138 357.882 C 273.779 358.956 271.223 360.122 271.223 360.122 C 271.223 360.122 271.538 364.633 268.613 367.561 C 265.686 370.486 259.026 371.734 249.575 369.181 C 240.121 366.63 233.084 362.348 234.675 352.242 C 234.675 352.242 231.114 347.848 232.334 341.779 C 233.552 335.709 233.203 329.043 233.203 329.043 Z"
   id="cuffRight" />
</g><g
   id="PEAK">
<path
   style="fill:none;stroke:#211d1d;stroke-miterlimit:10;stroke-width:0.333325"
   d="M 190.95 61.8148 C 190.95 61.8148 205.447 67.94 202.384 74.0652 C 199.322 80.1917 146.731 86.0582 120.508 66.8107 C 120.508 66.8107 164.407 68.7573 190.95 61.8148 Z"
   id="peak_path" />
</g><g
   id="CUFF-SHADOWS">
   <path
   style="fill:#none;fill-opacity:0;stroke:#211d1d;stroke-miterlimit:10;stroke-width:0.333325"
   d="M 38.2355 351.3 C 38.2355 351.3 27.8091 349.365 23.1359 351.3 C 18.4627 353.233 13.0695 353.716 11.9908 359.52 C 10.9122 365.322 12.7095 367.3 19.9 367.277 C 27.0904 367.256 42.5487 360.002 38.2355 351.3 Z"
   id="cuffShadow1" />
   <path
   style="fill:#none;fill-opacity:0;stroke:#211d1d;stroke-miterlimit:10;stroke-width:0.333325"
   d="M 239.709 351.3 C 239.709 351.3 250.135 349.365 254.809 351.3 C 259.482 353.233 264.875 353.716 265.954 359.52 C 267.032 365.322 265.235 367.3 258.045 367.277 C 250.854 367.256 235.396 360.002 239.709 351.3 Z"
   id="cuffShadow2" />
</g><path
   transform="matrix(0.61806667,0,0,0.61806667,-46.445,0)"
   id="path857"
   d="m 254.43686,562.49089 c -5.91297,-0.48183 -11.32679,-1.09438 -12.03072,-1.36122 -1.01719,-0.38562 -1.27986,-37.4033 -1.27986,-180.3689 V 200.87706 l 3.95795,6.04611 c 10.90431,16.65729 30.78919,30.19296 49.51701,33.70632 l 3.7552,0.70448 -1.06597,-3.94344 c -1.96683,-7.27605 -6.96793,-16.45906 -10.89666,-20.00843 -2.14239,-1.93552 -8.25094,-6.19741 -13.57456,-9.47088 -17.37574,-10.68423 -22.0044,-15.78627 -21.25522,-23.42899 0.45125,-4.60333 8.85976,-10.26727 18.49634,-12.45906 15.61202,-3.55088 44.79764,-3.02394 60.92859,1.10006 7.50557,1.91886 13.95995,6.29781 14.36788,9.74784 0.67978,5.74928 -11.05185,17.83164 -34.34117,35.36784 -8.55493,6.44161 -9.44113,7.76823 -10.21807,15.29605 -0.66775,6.46986 -0.47984,6.54823 9.48216,3.95496 14.35981,-3.73808 30.9782,-14.6232 41.34679,-27.08232 l 5.19939,-6.2477 v 176.62792 176.62792 l -3.32765,0.55807 c -7.24401,1.21486 -33.93824,3.66952 -50.42662,4.63696 -19.88874,1.16696 -33.24673,1.13404 -48.63481,-0.11988 z"
   style="opacity:0.790323;fill:#ffff00;fill-opacity:1;fill-rule:evenodd;stroke:none;stroke-width:1.65256;stroke-opacity:0.935743" /><path
   transform="matrix(0.61806667,0,0,0.61806667,-46.445,0)"
   id="path865"
   d="m 281.39547,58.553086 0.26591,-48.8489627 3.58361,-0.7458252 c 6.02491,-1.2539089 24.14957,-2.2049537 28.05574,-1.4721524 l 3.68488,0.6912872 V 57.78974 107.40205 h -17.92802 -17.92802 z"
   style="opacity:0.790323;fill:#ffff00;fill-opacity:1;fill-rule:evenodd;stroke:none;stroke-width:1.65256;stroke-opacity:1" /></svg>
