<?xml version="1.0" encoding="UTF-8" standalone="no"?>
<svg
   version="1.1"
   viewBox="0 0 277.95 370.84"
   xml:space="preserve"
   height="600"
   width="600"
   id="svg36"
   sodipodi:docname="356.svg"
   inkscape:version="1.1 (c68e22c387, 2021-05-23)"
   xmlns:inkscape="http://www.inkscape.org/namespaces/inkscape"
   xmlns:sodipodi="http://sodipodi.sourceforge.net/DTD/sodipodi-0.dtd"
   xmlns="http://www.w3.org/2000/svg"
   xmlns:svg="http://www.w3.org/2000/svg"
   xmlns:rdf="http://www.w3.org/1999/02/22-rdf-syntax-ns#"
   xmlns:cc="http://creativecommons.org/ns#"
   xmlns:dc="http://purl.org/dc/elements/1.1/"><sodipodi:namedview
   id="namedview38"
   pagecolor="#ffffff"
   bordercolor="#666666"
   borderopacity="1.0"
   inkscape:pageshadow="2"
   inkscape:pageopacity="0.0"
   inkscape:pagecheckerboard="0"
   showgrid="false"
   inkscape:snap-global="false"
   inkscape:zoom="0.62750001"
   inkscape:cx="283.66534"
   inkscape:cy="211.15538"
   inkscape:window-width="1920"
   inkscape:window-height="1001"
   inkscape:window-x="-9"
   inkscape:window-y="-9"
   inkscape:window-maximized="1"
   inkscape:current-layer="g23" />
	<metadata
   id="metadata2"><rdf:RDF><cc:Work
       rdf:about=""><dc:format>image/svg+xml</dc:format><dc:type
         rdf:resource="http://purl.org/dc/dcmitype/StillImage" /><dc:title /></cc:Work></rdf:RDF></metadata>
	<defs
   id="defs4">	</defs>
	<path
   id="body"
   d="M 135.753 94.3494 C 105.23 94.0994 99.9609 110.227 99.1798 113.688 C 95.0792 115.478 75.4114 124.063 70.7837 126.165 C 65.6638 128.491 52.9902 133.056 52.9902 133.056 C 52.9902 133.056 63.5819 212.366 61.9219 260.094 C 61.9219 260.094 64.7308 275.941 63.7761 283.579 C 62.8202 291.218 63.5935 294.205 63.7761 300.517 C 63.9575 306.826 63.8775 311.142 63.7761 315.46 C 63.6735 319.778 61.0349 329.075 63.7761 333.394 C 66.5174 337.711 85.5734 348.007 117.427 349.335 C 149.282 350.663 200.476 343.024 206.732 339.371 C 212.99 335.717 216.402 330.405 216.118 329.075 C 215.834 327.747 213.811 310.146 214.539 303.837 C 215.265 297.526 214.664 284.244 214.539 280.59 C 214.412 276.938 214.949 268.302 214.539 265.978 C 214.128 263.652 218.11 252.693 218.393 251.697 C 218.678 250.701 225.323 133.056 225.323 133.056 C 225.323 133.056 200.475 122.845 195.356 120.853 C 191.018 119.164 182.322 115.848 179.35 114.715 C 170.94 97.0422 179.575 97.0242 141.028 94.5449 C 139.191 94.4267 137.434 94.3631 135.753 94.3494 Z"
   style="fill:#000000;stroke:#211d1d;stroke-miterlimit:10;stroke-width:0.333325" />
	<path
   id="cap"
   d="M 143.192 3.9945 C 140.33 3.95933 137.33 4.10373 134.187 4.43874 C 93.9641 8.72663 94.1677 49.9729 94.1677 49.9729 C 94.1677 49.9729 86.2031 63.4478 120.508 66.8104 C 146.731 86.0579 199.322 80.1919 202.384 74.0654 C 205.447 67.9402 190.951 61.8151 190.951 61.8151 C 191.328 29.8158 176.954 4.40946 143.192 3.9945 Z"
   style="fill:#00a86b;stroke:#211d1d;stroke-miterlimit:10;stroke-width:0.333325;fill-opacity:1" />
	<path
   id="capButton"
   d="M 146.445 4.10955 C 146.445 4.10955 137.329 -5.35555 129.94 5.05219 C 129.94 5.05219 138.865 3.13091 146.445 4.10955 Z"
   style="fill:#3b393c;stroke:#211d1d;stroke-miterlimit:10;stroke-width:0.333325" />
	<path
   id="armLeft"
   d="M 6.72296 360.121 C 6.72296 360.121 5.92831 369.577 16.2574 370.561 C 26.5851 371.545 39.2981 365.637 41.6821 361.697 C 44.0647 357.758 43.2714 352.243 43.2714 352.243 C 43.2714 352.243 46.25 347.711 45.8526 343.575 C 45.4553 339.438 43.1447 331.952 45.8886 323.681 C 48.6339 315.407 53.0031 308.513 53.2018 304.769 C 53.4005 301.028 50.8192 295.117 50.8192 295.117 C 50.8192 295.117 53.7978 281.33 54.3938 271.481 C 54.9898 261.631 54.1951 253.556 55.9831 250.206 C 57.771 246.858 61.5456 240.949 61.5456 240.949 C 61.5456 240.949 63.4002 204.36 63.4002 194.021 C 63.4002 183.681 61.6029 157.299 59.0857 150.525 C 56.5697 143.752 52.6138 133.056 52.6138 133.056 C 52.6138 133.056 42.5487 142.682 37.8742 151.952 C 33.201 161.221 27.0891 192.087 23.8545 201.432 C 20.6186 210.777 13.4281 238.941 11.6308 243.577 C 9.83355 248.212 9.11357 257.482 9.11357 260.333 C 9.11357 263.186 8.61758 268.177 6.70829 270.673 C 4.80034 273.169 3.00172 286.003 3.00172 286.003 C 3.00172 286.003 1.56442 308.82 0.845774 316.663 C 0.125792 324.507 -0.232866 345.185 0.845774 350.533 C 1.92308 355.88 0.736443 357.944 6.72296 360.121 Z"
   style="fill:#000000;stroke:#211d1d;stroke-miterlimit:10;stroke-width:0.333325" />
	<path
   id="armRight"
   d="M 271.215 360.121 C 271.215 360.121 272.01 369.577 261.681 370.561 C 251.351 371.545 238.638 365.637 236.256 361.697 C 233.872 357.758 234.667 352.243 234.667 352.243 C 234.667 352.243 231.688 347.711 232.084 343.575 C 232.481 339.438 234.793 331.952 232.048 323.681 C 229.303 315.407 224.933 308.513 224.736 304.769 C 224.536 301.028 227.119 295.117 227.119 295.117 C 227.119 295.117 224.139 281.33 223.543 271.481 C 222.948 261.631 223.743 253.556 221.955 250.206 C 220.167 246.858 216.392 240.949 216.392 240.949 C 216.392 240.949 214.538 204.36 214.538 194.021 C 214.538 183.681 216.335 157.299 218.852 150.525 C 221.368 143.752 225.323 133.056 225.323 133.056 C 225.323 133.056 235.389 142.682 240.062 151.952 C 244.737 161.221 250.849 192.087 254.083 201.432 C 257.319 210.777 264.51 238.941 266.306 243.577 C 268.104 248.212 268.823 257.482 268.823 260.333 C 268.823 263.186 269.319 268.177 271.228 270.673 C 273.138 273.169 274.935 286.003 274.935 286.003 C 274.935 286.003 276.374 308.82 277.092 316.663 C 277.811 324.507 278.171 345.185 277.092 350.533 C 276.014 355.88 277.2 357.944 271.215 360.121 Z"
   style="fill:#000000;stroke:#211d1d;stroke-miterlimit:10;stroke-width:0.333325" />
<g
   d="CAP_HOOP"
   id="g23">
   
   
   
<path
   style="fill:#ff0000;fill-opacity:1;stroke:#000000;stroke-width:0.284533;stroke-linecap:round;stroke-opacity:1"
   d="m 132.40205,257.00409 c -5.43776,17.21317 -9.27785,34.87158 -13.80739,52.33402 -0.64156,2.56155 -1.28312,5.1231 -1.92468,7.68466 1.40983,0.59853 3.36936,0.0688 4.9834,0.24815 18.56225,0 37.1245,0 55.68675,0 0.46805,-1.99282 0.0822,-4.35084 0.16246,-6.48363 -0.5677,-17.75482 -1.69035,-35.52053 -4.06522,-53.13063 -0.47336,-1.67025 -3.16688,-0.38867 -4.55972,-0.79068 -12.09508,0 -24.19015,0 -36.28522,0 z"
   id="path20857"
   transform="matrix(0.61806667,0,0,0.61806667,-46.445,0)" /><path
   style="fill:#ff0000;fill-opacity:1;stroke:#000000;stroke-width:0.284533;stroke-linecap:round;stroke-opacity:1"
   d="m 426.5387,257.0437 c -2.45759,19.91479 -3.90422,39.95525 -4.11294,60.02309 1.95393,0.49258 4.29858,0.0562 6.39748,0.20413 18.0873,-0.0675 36.19107,0.1591 54.26827,-0.20413 -0.45785,-3.57301 -1.72675,-7.21128 -2.49254,-10.80513 -4.17556,-16.45591 -7.95342,-33.02886 -12.98092,-49.25372 -5.32269,-0.33117 -10.84847,-0.0474 -16.24928,-0.14196 -8.21048,0 -16.42096,0 -24.63143,0 z"
   id="path20896"
   transform="matrix(0.61806667,0,0,0.61806667,-46.445,0)" /><path
   style="fill:#00a86b;fill-opacity:1;stroke:#000000;stroke-width:0.284533;stroke-linecap:round;stroke-opacity:1"
   d="m 116.40257,317.86076 c -3.37272,11.25362 -6.98118,22.43799 -10.04868,33.7838 -2.38278,8.63991 -4.88957,17.29014 -7.121683,25.94382 1.366093,0.71549 3.176553,0.24661 4.690013,0.44903 23.61533,0.16757 47.23196,0.0469 70.8478,0.0841 0.80483,-2.81421 0.4521,-6.05444 0.75892,-9.03232 0.80393,-17.04988 1.38467,-34.109 2.03348,-51.16518 -1.94915,-0.5002 -4.2994,-0.0574 -6.39748,-0.20744 -18.19012,0 -36.38023,0 -54.57034,0 z"
   id="path24578"
   transform="matrix(0.61806667,0,0,0.61806667,-46.445,0)" /><path
   style="fill:#00a86b;fill-opacity:1;stroke:#000000;stroke-width:0.284533;stroke-linecap:round;stroke-opacity:1"
   d="m 422.44612,317.92294 c 0.55665,19.83036 1.61603,39.6435 2.32251,59.4668 0.29339,1.60968 3.11722,0.31811 4.42547,0.7318 23.27799,-0.0761 46.55961,0.16952 69.83527,-0.17332 0.70903,-0.0413 2.40122,0.12275 1.63944,-1.09059 -5.36843,-19.22013 -10.62958,-38.48157 -16.64301,-57.51456 0.15697,-2.42108 -2.41335,-1.44714 -3.94788,-1.62647 -19.14402,0 -38.28804,0 -57.43207,0 l -0.19593,0.20242 z"
   id="path24617"
   transform="matrix(0.61806667,0,0,0.61806667,-46.445,0)" /><path
   style="fill:#ff0000;fill-opacity:1;stroke:#000000;stroke-width:0.40239;stroke-linecap:round;stroke-opacity:1"
   d="m 85.251961,439.96903 c -5.254783,15.28717 -5.325343,31.63982 -6.58684,47.58259 -0.166649,4.12655 -0.832874,8.45987 -0.783678,12.44916 26.974657,0 53.949307,0 80.923957,0 3.55352,-5.80399 1.73564,-13.03528 -0.48011,-19.01223 -1.14269,-2.2799 -1.39253,-4.62186 -0.52614,-7.04141 2.25107,-11.20296 3.91966,-22.51875 5.07358,-33.88629 -5.58023,-0.51572 -11.58658,-0.0736 -17.33068,-0.22099 -20.03444,0 -40.06889,0 -60.103336,0 z"
   id="path28038"
   transform="matrix(0.61806667,0,0,0.61806667,-46.445,0)" /><path
   style="fill:#ff0000;fill-opacity:1;stroke:#000000;stroke-width:0.40239;stroke-linecap:round;stroke-opacity:1"
   d="m 437.08914,440.06007 c 1.16056,12.52908 3.41375,24.92883 5.65862,37.28913 -1.06414,3.83943 -2.748,7.5873 -3.30631,11.59813 -0.58919,3.48604 -0.38347,7.4968 1.54772,10.50797 6.15466,0.89689 12.48186,0.30617 18.69786,0.52968 20.80297,0.0292 41.60598,0.0104 62.40896,0.0158 -0.16437,-6.31836 -0.94041,-13.0155 -1.27141,-19.47956 -0.80003,-12.04868 -1.43008,-24.20273 -4.65314,-35.90657 -0.60079,-1.5507 -0.54857,-4.03498 -2.00856,-4.77479 -25.62484,0 -51.24969,0 -76.87453,0 z"
   id="path28077"
   transform="matrix(0.61806667,0,0,0.61806667,-46.445,0)" /><path
   style="fill:#00a86b;fill-opacity:1;stroke:#000000;stroke-width:0.40239;stroke-linecap:round;stroke-opacity:1"
   d="m 77.791957,500.18053 c -1.069729,12.8833 -2.160327,25.8189 -1.931337,38.75202 0.29943,1.32401 1.72586,-0.58538 2.15155,-0.95088 10.855918,-10.0849 25.24727,-17.19494 40.32922,-16.51705 10.2995,-0.0107 20.05355,4.38592 28.54917,9.90988 1.09588,-1.1747 0.86804,-3.60269 1.52742,-5.19584 2.49108,-9.00259 6.78439,-17.3619 10.48936,-25.89775 -3.34004,-0.65664 -7.34355,-0.0944 -10.93906,-0.28169 -23.32571,0 -46.65141,0 -69.97712,0 z"
   id="path30183"
   transform="matrix(0.61806667,0,0,0.61806667,-46.445,0)" /><path
   style="fill:#00a86b;fill-opacity:1;stroke:#000000;stroke-width:0.40239;stroke-linecap:round;stroke-opacity:1"
   d="m 442.16805,499.83737 c -2.14424,-0.29137 -0.0408,2.07308 0.10084,3.0258 4.07658,9.24197 8.5148,18.44019 10.54019,28.40084 2.88677,-1.22319 5.72052,-3.48621 8.79995,-4.74975 7.60446,-3.70052 16.04117,-5.70203 24.51618,-4.97461 14.23911,0.6098 27.24902,8.17318 37.38932,17.80142 1.15649,0.32952 0.52893,-1.82273 0.73301,-2.45346 -0.11717,-12.25564 -1.06217,-24.48664 -2.05817,-36.69697 -8.28874,-0.44868 -16.8893,-0.10437 -25.29795,-0.24813 -18.2411,-0.0432 -36.48221,-0.10356 -54.72337,-0.10514 z"
   id="path30222"
   transform="matrix(0.61806667,0,0,0.61806667,-46.445,0)" /></g><g
   id="COLLAR">
	<path
   id="collarMain"
   d="M 140.112 147.266 C 140.112 147.266 139.195 140.389 142.863 137.868 C 146.529 135.346 158.909 125.719 163.722 120.676 C 168.535 115.632 169.911 107.152 168.994 104.171 C 168.078 101.191 162.721 97.2952 156.804 97.2952 C 150.885 97.2952 128.65 96.6073 124.754 97.2952 C 120.856 97.9832 113.522 99.5872 111.687 102.338 C 109.854 105.088 105.04 116.473 111.687 122.128 C 118.335 127.782 127.504 131.449 131.402 136.034 C 135.297 140.618 137.132 148.413 137.132 148.413 C 137.132 148.413 109.547 145.226 99.041 114.383 C 99.041 114.383 101.832 92.022 141.028 94.5447 C 180.227 97.0659 170.621 97.0286 179.779 115.615 C 179.779 115.615 167.39 143.37 140.112 147.266 Z"
   style="fill:none;stroke:#000000;stroke-miterlimit:10;stroke-width:0.5" />
	<path
   id="collarBack"
   d="M 135.046 96.9931 C 130.254 96.9729 126.215 97.0369 124.754 97.2949 C 120.856 97.9829 113.522 99.5876 111.687 102.338 C 110.685 103.842 108.803 107.926 108.378 112.243 C 109.848 110.446 112.251 108.955 115.268 107.239 C 118.435 105.439 127.786 104.203 137.769 104.205 C 149.084 104.207 161.209 105.798 166.063 109.959 C 167.21 110.942 167.778 112.179 167.897 113.59 C 169.259 109.757 169.546 105.966 168.994 104.171 C 168.078 101.191 162.721 97.2949 156.804 97.2949 C 153.104 97.2949 143.031 97.0266 135.046 96.9931 Z"
   style="fill:none;stroke:#000000;stroke-miterlimit:10;stroke-width:0.5" />
</g><g
   id="CUFFS">
   <path
   id="cuffLeft"
   d="M 44.7433 329.043 C 20.3479 311.35 0.173748 334.35 0.173748 334.35 C 0.173748 334.35 0.277745 345.133 0.440408 347.004 C 0.604404 348.875 1.10572 352.358 1.36838 353.914 C 1.63104 355.47 1.44838 356.809 2.80835 357.882 C 4.16831 358.956 6.72292 360.122 6.72292 360.122 C 6.72292 360.122 6.40826 364.633 9.33352 367.561 C 12.2588 370.486 18.9186 371.734 28.3717 369.181 C 37.8248 366.63 44.862 362.348 43.2713 352.242 C 43.2713 352.242 46.8326 347.848 45.6139 341.779 C 44.394 335.709 44.7433 329.043 44.7433 329.043 Z"
   style="fill:none;stroke:#211d1d;stroke-miterlimit:10;stroke-width:0.333325" />
   <path
   id="cuffRight"
   d="M 233.203 329.043 C 257.6 311.35 277.774 334.35 277.774 334.35 C 277.774 334.35 277.669 345.133 277.506 347.004 C 277.342 348.875 276.841 352.358 276.578 353.914 C 276.315 355.47 276.498 356.809 275.138 357.882 C 273.779 358.956 271.223 360.122 271.223 360.122 C 271.223 360.122 271.538 364.633 268.613 367.561 C 265.686 370.486 259.026 371.734 249.575 369.181 C 240.121 366.63 233.084 362.348 234.675 352.242 C 234.675 352.242 231.114 347.848 232.334 341.779 C 233.552 335.709 233.203 329.043 233.203 329.043 Z"
   style="fill:none;stroke:#211d1d;stroke-miterlimit:10;stroke-width:0.333325" />
</g><g
   id="PEAK">
<path
   id="peak_path"
   d="M 190.95 61.8148 C 190.95 61.8148 205.447 67.94 202.384 74.0652 C 199.322 80.1917 146.731 86.0582 120.508 66.8107 C 120.508 66.8107 164.407 68.7573 190.95 61.8148 Z"
   style="fill:none;stroke:#211d1d;stroke-miterlimit:10;stroke-width:0.333325" />
</g><g
   id="CUFF-SHADOWS">
   <path
   id="cuffShadow1"
   d="M 38.2355 351.3 C 38.2355 351.3 27.8091 349.365 23.1359 351.3 C 18.4627 353.233 13.0695 353.716 11.9908 359.52 C 10.9122 365.322 12.7095 367.3 19.9 367.277 C 27.0904 367.256 42.5487 360.002 38.2355 351.3 Z"
   style="fill:#none;fill-opacity:0;stroke:#211d1d;stroke-miterlimit:10;stroke-width:0.333325" />
   <path
   id="cuffShadow2"
   d="M 239.709 351.3 C 239.709 351.3 250.135 349.365 254.809 351.3 C 259.482 353.233 264.875 353.716 265.954 359.52 C 267.032 365.322 265.235 367.3 258.045 367.277 C 250.854 367.256 235.396 360.002 239.709 351.3 Z"
   style="fill:#none;fill-opacity:0;stroke:#211d1d;stroke-miterlimit:10;stroke-width:0.333325" />
</g><path
   style="fill:#00a86b;fill-opacity:1;stroke:#000000;stroke-width:0.284533;stroke-linecap:round"
   d="m 178.06973,318.47427 c -0.36132,20.22977 -1.85072,40.41766 -2.40504,60.63933 -0.11781,14.29424 0.007,28.59656 0.12814,42.88625 1.08317,7.00121 1.88488,14.05389 2.69177,21.0693 5.06396,0.4467 10.24293,0.17628 15.34743,0.30394 75.99722,0.19728 151.99492,0.0688 227.99233,0.10653 0.8763,-3.33515 0.38058,-7.06129 0.40124,-10.55847 -0.33533,-3.80783 0.20824,-7.60603 1.42537,-11.22129 1.30785,-5.18093 3.43785,-10.12763 4.58408,-15.34511 0.26464,-3.27086 0.98898,-6.62729 0.39781,-9.88811 -0.87228,-2.53241 -3.11857,-4.49672 -3.80691,-7.0212 -0.40162,-15.59623 -1.31545,-31.17264 -2.14337,-46.74282 -0.40233,-7.75125 -0.46031,-15.51961 -0.77403,-23.26986 0.0788,-2.04073 -2.51992,-0.82902 -3.7718,-1.15272 -79.95576,0 -159.91153,0 -239.86729,0 z"
   id="path6014"
   transform="matrix(0.61806667,0,0,0.61806667,-46.445,0)" /><path
   style="fill:#ff0000;fill-opacity:1;stroke:#000000;stroke-width:0.40239;stroke-linecap:round"
   d="m 176.60919,361.13826 c -0.97353,13.65529 -0.69063,27.36934 -1.03726,41.04986 6.66944,0.47398 13.70752,0.0676 20.51871,0.2031 77.46514,0 154.93028,0 232.39542,0 0.64938,-3.02358 0.14925,-6.48607 -1.81929,-9.0653 -1.67569,-2.35002 -2.31842,-5.12204 -2.06934,-7.97628 -0.32681,-8.07171 -0.60206,-16.14833 -1.16615,-24.20749 -8.0196,-0.43584 -16.35931,-0.0622 -24.502,-0.18675 -74.0403,0 -148.08059,0 -222.12089,0 z"
   id="path10076"
   transform="matrix(0.61806667,0,0,0.61806667,-46.445,0)" /></svg>
