<?xml version="1.0" encoding="utf-8"?>
<svg xmlns="http://www.w3.org/2000/svg" xmlns:xlink="http://www.w3.org/1999/xlink" xmlns:cc="http://creativecommons.org/ns#" xmlns:dc="http://purl.org/dc/elements/1.1/" xmlns:rdf="http://www.w3.org/1999/02/22-rdf-syntax-ns#" version="1.1" viewBox="0 0 277.95 370.84" xml:space="preserve" height="600" width="600">
	<metadata><rdf:RDF><cc:Work rdf:about=""><dc:format>image/svg+xml</dc:format><dc:type rdf:resource="http://purl.org/dc/dcmitype/StillImage"/><dc:title/></cc:Work></rdf:RDF></metadata>
	<defs>	</defs>
	<path id="body" d="M 135.753 94.3494 C 105.23 94.0994 99.9609 110.227 99.1798 113.688 C 95.0792 115.478 75.4114 124.063 70.7837 126.165 C 65.6638 128.491 52.9902 133.056 52.9902 133.056 C 52.9902 133.056 63.5819 212.366 61.9219 260.094 C 61.9219 260.094 64.7308 275.941 63.7761 283.579 C 62.8202 291.218 63.5935 294.205 63.7761 300.517 C 63.9575 306.826 63.8775 311.142 63.7761 315.46 C 63.6735 319.778 61.0349 329.075 63.7761 333.394 C 66.5174 337.711 85.5734 348.007 117.427 349.335 C 149.282 350.663 200.476 343.024 206.732 339.371 C 212.99 335.717 216.402 330.405 216.118 329.075 C 215.834 327.747 213.811 310.146 214.539 303.837 C 215.265 297.526 214.664 284.244 214.539 280.59 C 214.412 276.938 214.949 268.302 214.539 265.978 C 214.128 263.652 218.11 252.693 218.393 251.697 C 218.678 250.701 225.323 133.056 225.323 133.056 C 225.323 133.056 200.475 122.845 195.356 120.853 C 191.018 119.164 182.322 115.848 179.35 114.715 C 170.94 97.0422 179.575 97.0242 141.028 94.5449 C 139.191 94.4267 137.434 94.3631 135.753 94.3494 Z" style="fill:#00FF00;stroke:#211d1d;stroke-miterlimit:10;stroke-width:0.333325"/>
	<path id="cap" d="M 143.192 3.9945 C 140.33 3.95933 137.33 4.10373 134.187 4.43874 C 93.9641 8.72663 94.1677 49.9729 94.1677 49.9729 C 94.1677 49.9729 86.2031 63.4478 120.508 66.8104 C 146.731 86.0579 199.322 80.1919 202.384 74.0654 C 205.447 67.9402 190.951 61.8151 190.951 61.8151 C 191.328 29.8158 176.954 4.40946 143.192 3.9945 Z" style="fill:#00FF00;stroke:#211d1d;stroke-miterlimit:10;stroke-width:0.333325"/>
	<path id="capButton" d="M 146.445 4.10955 C 146.445 4.10955 137.329 -5.35555 129.94 5.05219 C 129.94 5.05219 138.865 3.13091 146.445 4.10955 Z" style="fill:#3b393c;stroke:#211d1d;stroke-miterlimit:10;stroke-width:0.333325"/>
	<path id="armLeft" d="M 6.72296 360.121 C 6.72296 360.121 5.92831 369.577 16.2574 370.561 C 26.5851 371.545 39.2981 365.637 41.6821 361.697 C 44.0647 357.758 43.2714 352.243 43.2714 352.243 C 43.2714 352.243 46.25 347.711 45.8526 343.575 C 45.4553 339.438 43.1447 331.952 45.8886 323.681 C 48.6339 315.407 53.0031 308.513 53.2018 304.769 C 53.4005 301.028 50.8192 295.117 50.8192 295.117 C 50.8192 295.117 53.7978 281.33 54.3938 271.481 C 54.9898 261.631 54.1951 253.556 55.9831 250.206 C 57.771 246.858 61.5456 240.949 61.5456 240.949 C 61.5456 240.949 63.4002 204.36 63.4002 194.021 C 63.4002 183.681 61.6029 157.299 59.0857 150.525 C 56.5697 143.752 52.6138 133.056 52.6138 133.056 C 52.6138 133.056 42.5487 142.682 37.8742 151.952 C 33.201 161.221 27.0891 192.087 23.8545 201.432 C 20.6186 210.777 13.4281 238.941 11.6308 243.577 C 9.83355 248.212 9.11357 257.482 9.11357 260.333 C 9.11357 263.186 8.61758 268.177 6.70829 270.673 C 4.80034 273.169 3.00172 286.003 3.00172 286.003 C 3.00172 286.003 1.56442 308.82 0.845774 316.663 C 0.125792 324.507 -0.232866 345.185 0.845774 350.533 C 1.92308 355.88 0.736443 357.944 6.72296 360.121 Z" style="fill:#00FF00;stroke:#211d1d;stroke-miterlimit:10;stroke-width:0.333325"/>
	<path id="armRight" d="M 271.215 360.121 C 271.215 360.121 272.01 369.577 261.681 370.561 C 251.351 371.545 238.638 365.637 236.256 361.697 C 233.872 357.758 234.667 352.243 234.667 352.243 C 234.667 352.243 231.688 347.711 232.084 343.575 C 232.481 339.438 234.793 331.952 232.048 323.681 C 229.303 315.407 224.933 308.513 224.736 304.769 C 224.536 301.028 227.119 295.117 227.119 295.117 C 227.119 295.117 224.139 281.33 223.543 271.481 C 222.948 261.631 223.743 253.556 221.955 250.206 C 220.167 246.858 216.392 240.949 216.392 240.949 C 216.392 240.949 214.538 204.36 214.538 194.021 C 214.538 183.681 216.335 157.299 218.852 150.525 C 221.368 143.752 225.323 133.056 225.323 133.056 C 225.323 133.056 235.389 142.682 240.062 151.952 C 244.737 161.221 250.849 192.087 254.083 201.432 C 257.319 210.777 264.51 238.941 266.306 243.577 C 268.104 248.212 268.823 257.482 268.823 260.333 C 268.823 263.186 269.319 268.177 271.228 270.673 C 273.138 273.169 274.935 286.003 274.935 286.003 C 274.935 286.003 276.374 308.82 277.092 316.663 C 277.811 324.507 278.171 345.185 277.092 350.533 C 276.014 355.88 277.2 357.944 271.215 360.121 Z" style="fill:#00FF00;stroke:#211d1d;stroke-miterlimit:10;stroke-width:0.333325"/>
<g id="SASH-RH">
<path id="sash_rh_path" style="fill:#FFFFFF;stroke:#FFFFFF;stroke-width:1.09489" d="m 277.22769,441.94673 -99.11797,-114.00913 -0.0485,-17.20671 c -0.0664,-23.55011 -2.67072,-52.90831 -5.68927,-64.13515 -0.63217,-2.35123 -3.32708,-10.19642 -5.98867,-17.43376 -5.51961,-15.00875 -5.22859,-13.87522 -3.56231,-13.87522 0.70233,0 8.86432,-3.03327 18.13775,-6.7406 16.53748,-6.61135 16.89919,-6.70058 18.86396,-4.65329 1.10175,1.14803 51.57282,59.14622 112.15793,128.88487 l 110.15475,126.79755 -0.17181,28.6769 c -0.0965,16.09695 0.35503,32.27919 1.02915,36.88858 0.99447,6.79975 0.92859,8.62964 -0.38318,10.64253 -2.7631,4.23992 -9.15662,10.07371 -13.37561,12.20462 -3.88207,1.96074 -18.57184,5.72101 -28.33649,7.25355 l -4.5517,0.71439 z" transform="matrix(0.61806667,0,0,0.61806667,-46.445,0)"/>
</g><g id="ARM-HOOPED">
<path id="SLEEVES_LEFT_HOOP_1" transform="matrix(0.61806668,0,0,0.61806668,-46.445,0)" d="m 123.51953,288.60742 c -3.79343,15.25409 -7.31847,30.18931 -9.7793,37.29883 -1.0422,3.0098 -2.37664,7.42223 -3.80664,12.30469 l 66.55664,13.71094 c 0.64964,-15.12647 1.23438,-30.65483 1.23438,-38.00586 0,-3.65972 -0.16376,-8.68848 -0.42383,-14.22852 l -53.78125,-11.08008 z" style="fill:#FFFFFF;fill-rule:evenodd;stroke:#000000;stroke-width:0.93899912px;stroke-linecap:butt;stroke-linejoin:miter;stroke-opacity:1"/><path id="SLEEVES_LEFT_HOOP_2" transform="matrix(0.61806668,0,0,0.61806668,-46.445,0)" d="m 101.35742,368.68945 c -3.230934,11.69411 -6.157483,22.21539 -7.394529,25.40625 -2.510153,6.47354 -3.715604,18.50498 -4,24.65039 L 163.39844,433.875 c 0.47052,-13.46285 -0.23589,-24.25807 2.32422,-29.05469 2.89273,-5.41689 9,-14.97656 9,-14.97656 0,0 0.17002,-3.44954 0.29492,-5.97852 l -73.66016,-15.17578 z" style="fill:#FFFFFF;fill-rule:evenodd;stroke:#000000;stroke-width:0.93899912px;stroke-linecap:butt;stroke-linejoin:miter;stroke-opacity:1"/><path id="SLEEVES_LEFT_HOOP_3" transform="matrix(0.61806668,0,0,0.61806668,-46.445,0)" d="m 83.300781,445.24414 c -1.893298,7.47357 -3.298828,17.49414 -3.298828,17.49414 0,0 -1.167817,18.44664 -2.261719,33.76172 l 76.177736,15.69336 c 3.59513,-8.1732 7.08123,-14.88333 7.30469,-19.09375 0.32148,-6.05275 -3.85352,-15.61524 -3.85352,-15.61523 0,0 1.54732,-7.23965 3.06445,-16.35157 L 83.300781,445.24414 Z" style="fill:#FFFFFF;fill-rule:evenodd;stroke:#000000;stroke-width:0.93899912px;stroke-linecap:butt;stroke-linejoin:miter;stroke-opacity:1"/><path id="SLEEVES_RIGHT_HOOP_1" transform="matrix(0.61806668,0,0,0.61806668,-46.445,0)" d="m 476.63867,289.33203 -53.99219,11.12109 c -0.2365,5.21517 -0.38867,9.97846 -0.38867,13.4629 0,7.47392 0.6031,23.39932 1.26563,38.76171 l 66.73437,-13.74804 c -1.51541,-5.19538 -2.92513,-9.86301 -4.01953,-13.02344 -2.41969,-6.99196 -5.87876,-21.5888 -9.59961,-36.57422 z" style="fill:#FFFFFF;fill-rule:evenodd;stroke:#000000;stroke-width:0.93899912px;stroke-linecap:butt;stroke-linejoin:miter;stroke-opacity:1"/><path id="SLEEVES_RIGHT_HOOP_2" transform="matrix(0.61806668,0,0,0.61806668,-46.445,0)" d="m 498.82227,369.41211 -73.82422,15.20898 c 0.0975,1.968 0.25781,5.22266 0.25781,5.22266 0,0 6.10906,9.55967 9.00195,14.97656 2.60697,4.88443 1.83392,16.00247 2.35742,29.81055 l 73.42774,-15.12695 c -0.20967,-5.83707 -1.40183,-18.63998 -4.02735,-25.40821 -1.20929,-3.12154 -4.05091,-13.31461 -7.19335,-24.68359 z" style="fill:#FFFFFF;fill-rule:evenodd;stroke:#000000;stroke-width:0.93899912px;stroke-linecap:butt;stroke-linejoin:miter;stroke-opacity:1"/><path id="SLEEVES_RIGHT_HOOP_3" transform="matrix(0.61806668,0,0,0.61806668,-46.445,0)" d="m 516.85547,445.9707 -77.18555,15.90039 c 1.47706,8.75785 2.94336,15.61329 2.94336,15.61329 0,-10e-6 -4.17906,9.56248 -3.85547,15.61523 0.22792,4.33161 3.90874,11.30036 7.61133,19.79687 l 75.92383,-15.64062 c -1.10931,-15.4518 -2.31641,-34.51758 -2.31641,-34.51758 0,0 -1.31929,-9.38745 -3.12109,-16.76758 z" style="fill:#FFFFFF;fill-rule:evenodd;stroke:#000000;stroke-width:0.93899912px;stroke-linecap:butt;stroke-linejoin:miter;stroke-opacity:1"/>
</g><g d="CAP_HOOP">
   <path id="CAP_HOOP_1" transform="matrix(0.61806668,0,0,0.61806668,-46.445,0)" d="m 227.5625,79.101562 c -0.0454,1.028104 -0.0586,1.751954 -0.0586,1.751954 0,0 -12.88605,21.801674 42.61718,27.242184 55.50049,5.44262 113.97266,-8.08203 113.97266,-8.08203 0.0579,-4.916098 -0.11334,-9.729489 -0.49219,-14.427732 -50.66551,11.11487 -126.8242,11.192249 -156.03906,-6.484376 z" style="fill:#FFFFFF;fill-opacity:1;fill-rule:evenodd;stroke:#000000;stroke-width:1px;stroke-linecap:butt;stroke-linejoin:miter;stroke-opacity:1"/>
   <path id="CAP_HOOP_2" transform="matrix(0.61806668,0,0,0.61806668,-46.445,0)" d="m 235.32227,46.966797 c -2.45827,5.426551 -4.14824,10.757368 -5.30274,15.529297 30.30735,15.992647 101.75089,15.909182 151,5.636718 -1.31677,-5.962474 -3.05023,-11.644497 -5.25,-16.958984 -46.18905,8.69703 -108.94099,8.776899 -140.44726,-4.207031 z" style="fill:#FFFFFF;fill-opacity:1;fill-rule:evenodd;stroke:#000000;stroke-width:1px;stroke-linecap:butt;stroke-linejoin:miter;stroke-opacity:1"/>
   <path id="CAP_HOOP_3" transform="matrix(0.61806668,0,0,0.61806668,-46.445,0)" d="m 260.23047,17.695312 c -6.52849,4.104268 -11.75388,9.063794 -15.9375,14.376954 31.05185,9.102702 81.55184,9.091747 122.36914,2.671875 -4.49669,-6.172484 -9.90471,-11.507139 -16.26367,-15.830079 -30.57533,3.365765 -64.15765,3.283528 -90.16797,-1.21875 z" style="fill:#FFFFFF;fill-opacity:1;fill-rule:evenodd;stroke:#000000;stroke-width:1px;stroke-linecap:butt;stroke-linejoin:miter;stroke-opacity:1"/>
</g><g id="COLLAR">
	<path id="collarMain" d="M 140.112 147.266 C 140.112 147.266 139.195 140.389 142.863 137.868 C 146.529 135.346 158.909 125.719 163.722 120.676 C 168.535 115.632 169.911 107.152 168.994 104.171 C 168.078 101.191 162.721 97.2952 156.804 97.2952 C 150.885 97.2952 128.65 96.6073 124.754 97.2952 C 120.856 97.9832 113.522 99.5872 111.687 102.338 C 109.854 105.088 105.04 116.473 111.687 122.128 C 118.335 127.782 127.504 131.449 131.402 136.034 C 135.297 140.618 137.132 148.413 137.132 148.413 C 137.132 148.413 109.547 145.226 99.041 114.383 C 99.041 114.383 101.832 92.022 141.028 94.5447 C 180.227 97.0659 170.621 97.0286 179.779 115.615 C 179.779 115.615 167.39 143.37 140.112 147.266 Z" style="fill:none;stroke:#000000;stroke-miterlimit:10;stroke-width:0.5"/>
	<path id="collarBack" d="M 135.046 96.9931 C 130.254 96.9729 126.215 97.0369 124.754 97.2949 C 120.856 97.9829 113.522 99.5876 111.687 102.338 C 110.685 103.842 108.803 107.926 108.378 112.243 C 109.848 110.446 112.251 108.955 115.268 107.239 C 118.435 105.439 127.786 104.203 137.769 104.205 C 149.084 104.207 161.209 105.798 166.063 109.959 C 167.21 110.942 167.778 112.179 167.897 113.59 C 169.259 109.757 169.546 105.966 168.994 104.171 C 168.078 101.191 162.721 97.2949 156.804 97.2949 C 153.104 97.2949 143.031 97.0266 135.046 96.9931 Z" style="fill:none;stroke:#000000;stroke-miterlimit:10;stroke-width:0.5"/>
</g><g id="CUFFS">
   <path id="cuffLeft" d="M 44.7433 329.043 C 20.3479 311.35 0.173748 334.35 0.173748 334.35 C 0.173748 334.35 0.277745 345.133 0.440408 347.004 C 0.604404 348.875 1.10572 352.358 1.36838 353.914 C 1.63104 355.47 1.44838 356.809 2.80835 357.882 C 4.16831 358.956 6.72292 360.122 6.72292 360.122 C 6.72292 360.122 6.40826 364.633 9.33352 367.561 C 12.2588 370.486 18.9186 371.734 28.3717 369.181 C 37.8248 366.63 44.862 362.348 43.2713 352.242 C 43.2713 352.242 46.8326 347.848 45.6139 341.779 C 44.394 335.709 44.7433 329.043 44.7433 329.043 Z" style="fill:none;stroke:#211d1d;stroke-miterlimit:10;stroke-width:0.333325"/>
   <path id="cuffRight" d="M 233.203 329.043 C 257.6 311.35 277.774 334.35 277.774 334.35 C 277.774 334.35 277.669 345.133 277.506 347.004 C 277.342 348.875 276.841 352.358 276.578 353.914 C 276.315 355.47 276.498 356.809 275.138 357.882 C 273.779 358.956 271.223 360.122 271.223 360.122 C 271.223 360.122 271.538 364.633 268.613 367.561 C 265.686 370.486 259.026 371.734 249.575 369.181 C 240.121 366.63 233.084 362.348 234.675 352.242 C 234.675 352.242 231.114 347.848 232.334 341.779 C 233.552 335.709 233.203 329.043 233.203 329.043 Z" style="fill:none;stroke:#211d1d;stroke-miterlimit:10;stroke-width:0.333325"/>
</g><g id="PEAK">
<path id="peak_path" d="M 190.95 61.8148 C 190.95 61.8148 205.447 67.94 202.384 74.0652 C 199.322 80.1917 146.731 86.0582 120.508 66.8107 C 120.508 66.8107 164.407 68.7573 190.95 61.8148 Z" style="fill:none;stroke:#211d1d;stroke-miterlimit:10;stroke-width:0.333325"/>
</g><g id="CUFF-SHADOWS">
   <path id="cuffShadow1" d="M 38.2355 351.3 C 38.2355 351.3 27.8091 349.365 23.1359 351.3 C 18.4627 353.233 13.0695 353.716 11.9908 359.52 C 10.9122 365.322 12.7095 367.3 19.9 367.277 C 27.0904 367.256 42.5487 360.002 38.2355 351.3 Z" style="fill:#none;fill-opacity:0;stroke:#211d1d;stroke-miterlimit:10;stroke-width:0.333325"/>
   <path id="cuffShadow2" d="M 239.709 351.3 C 239.709 351.3 250.135 349.365 254.809 351.3 C 259.482 353.233 264.875 353.716 265.954 359.52 C 267.032 365.322 265.235 367.3 258.045 367.277 C 250.854 367.256 235.396 360.002 239.709 351.3 Z" style="fill:#none;fill-opacity:0;stroke:#211d1d;stroke-miterlimit:10;stroke-width:0.333325"/>
</g></svg>
