<?xml version="1.0" encoding="UTF-8" standalone="no"?>
<svg
   version="1.1"
   viewBox="0 0 2779.5 3708.4"
   xml:space="preserve"
   height="600"
   width="600"
   id="svg22"
   sodipodi:docname="D11012.svg"
   inkscape:version="1.1 (c68e22c387, 2021-05-23)"
   xmlns:inkscape="http://www.inkscape.org/namespaces/inkscape"
   xmlns:sodipodi="http://sodipodi.sourceforge.net/DTD/sodipodi-0.dtd"
   xmlns="http://www.w3.org/2000/svg"
   xmlns:svg="http://www.w3.org/2000/svg"
   xmlns:rdf="http://www.w3.org/1999/02/22-rdf-syntax-ns#"
   xmlns:cc="http://creativecommons.org/ns#"
   xmlns:dc="http://purl.org/dc/elements/1.1/"><sodipodi:namedview
   id="namedview24"
   pagecolor="#ffffff"
   bordercolor="#666666"
   borderopacity="1.0"
   inkscape:pageshadow="2"
   inkscape:pageopacity="0.0"
   inkscape:pagecheckerboard="0"
   showgrid="false"
   inkscape:zoom="1.1092738"
   inkscape:cx="211.39957"
   inkscape:cy="318.67697"
   inkscape:window-width="1920"
   inkscape:window-height="1001"
   inkscape:window-x="-9"
   inkscape:window-y="-9"
   inkscape:window-maximized="1"
   inkscape:current-layer="svg22"
   inkscape:snap-global="false"
   width="61px"
   fit-margin-top="0"
   fit-margin-left="0"
   fit-margin-right="0"
   fit-margin-bottom="0" />
	<metadata
   id="metadata2"><rdf:RDF><cc:Work
       rdf:about=""><dc:format>image/svg+xml</dc:format><dc:type
         rdf:resource="http://purl.org/dc/dcmitype/StillImage" /></cc:Work></rdf:RDF></metadata>
	<defs
   id="defs4"><inkscape:path-effect
   effect="bspline"
   id="path-effect876"
   is_visible="true"
   lpeversion="1"
   weight="33.333333"
   steps="2"
   helper_size="0"
   apply_no_weight="true"
   apply_with_weight="true"
   only_selected="false" />	</defs>
	<path
   id="body"
   d="m 1353.8201,924.39707 c -305.23,-2.5 -357.92103,158.77603 -365.73203,193.38603 -41.00601,17.9 -237.68404,103.75 -283.96104,124.77 -51.199,23.26 -177.93499,68.91 -177.93499,68.91 0,0 105.91699,793.1 89.31699,1270.38 0,0 28.089,158.47 18.542,234.85 -9.559,76.39 -1.826,106.26 0,169.38 1.814,63.09 1.014,106.25 0,149.43 -1.026,43.18 -27.412,136.15 0,179.34 27.413,43.17 217.973,146.13 536.50907,159.41 318.55,13.28 830.49,-63.11 893.05,-99.64 62.58,-36.54 96.7,-89.66 93.86,-102.96 -2.84,-13.28 -23.07,-189.29 -15.79,-252.38 7.26,-63.11 1.25,-195.93 0,-232.47 -1.27,-36.52 4.1,-122.88 0,-146.12 -4.11,-23.26 35.71,-132.85 38.54,-142.81 2.85,-9.96 69.3,-1186.41 69.3,-1186.41 0,0 -248.48,-102.11 -299.67,-122.03 -43.38,-16.89 -130.34,-50.05 -160.06,-61.38 -84.1,-176.72803 2.25,-176.90803 -383.22,-201.70103 -18.37,-1.182 -35.94,-1.818 -52.75,-1.955 z"
   style="fill:#567d46;stroke:#211d1d;stroke-width:3.33325;stroke-miterlimit:10" />
	<path
   id="cap"
   d="m 1431.9741,20.848081 c -28.62,-0.3517 -58.62,1.0923 -90.05,4.4424 C 939.69506,68.16938 941.73106,480.63207 941.73106,480.63207 c 0,0 -79.64603,134.749 263.40304,168.375 262.23,192.475 788.14,133.815 818.76,72.55 30.63,-61.252 -114.33,-122.503 -114.33,-122.503 3.77,-319.993 -139.97,-574.056389 -477.59,-578.205989 z"
   style="fill:#4b0082;stroke:#211d1d;stroke-width:3.33325;stroke-miterlimit:10" />
	<path
   id="capButton"
   d="m 1397.2254,1670.9799 c 0,0 -9.116,-9.4651 -16.505,0.9426 0,0 8.925,-1.9213 16.505,-0.9426 z"
   style="fill:#3b393c;stroke:#211d1d;stroke-width:0.333325;stroke-miterlimit:10" />
	<path
   id="armLeft"
   d="m 67.283667,3582.1131 c 0,0 -7.9465,94.56 95.344393,104.4 103.277,9.84 230.40699,-49.24 254.24699,-88.64 23.826,-39.39 15.893,-94.54 15.893,-94.54 0,0 29.78599,-45.32 25.81199,-86.68 -3.973,-41.37 -27.07899,-116.23 0.36,-198.94 27.453,-82.74 71.145,-151.68 73.132,-189.12 1.987,-37.41 -23.826,-96.52 -23.826,-96.52 0,0 29.786,-137.87 35.746,-236.36 5.96,-98.5 -1.987,-179.25 15.893,-212.75 17.87899,-33.48 55.62499,-92.57 55.62499,-92.57 0,0 18.546,-365.89 18.546,-469.28 0,-103.4 -17.973,-367.22 -43.145,-434.96 -25.16,-67.73 -64.71899,-174.69 -64.71899,-174.69 0,0 -100.65099,96.26 -147.39599,188.96 -46.73201,92.69 -107.85099,401.35 -140.19699,494.8 -32.359,93.45 -104.264,375.09 -122.237,421.45 -17.972495,46.35 -25.172295,139.05 -25.172295,167.56 0,28.53 -4.9599,78.44 -24.052798,103.4 -19.0795,24.96 -37.0657,153.3 -37.0657,153.3 0,0 -14.373,228.17 -21.5594003,306.6 -7.1998,78.44 -10.7864,285.22 0,338.7 10.7730003,53.47 -1.0933,74.11 58.7718003,95.88 z"
   style="fill:#4b0082;stroke:#211d1d;stroke-width:3.33325;stroke-miterlimit:10" />
	<path
   id="armRight"
   d="m 2712.2041,3582.1131 c 0,0 7.95,94.56 -95.34,104.4 -103.3,9.84 -230.43,-49.24 -254.25,-88.64 -23.84,-39.39 -15.89,-94.54 -15.89,-94.54 0,0 -29.79,-45.32 -25.83,-86.68 3.97,-41.37 27.09,-116.23 -0.36,-198.94 -27.45,-82.74 -71.15,-151.68 -73.12,-189.12 -2,-37.41 23.83,-96.52 23.83,-96.52 0,0 -29.8,-137.87 -35.76,-236.36 -5.95,-98.5 2,-179.25 -15.88,-212.75 -17.88,-33.48 -55.63,-92.57 -55.63,-92.57 0,0 -18.54,-365.89 -18.54,-469.28 0,-103.4 17.97,-367.22 43.14,-434.96 25.16,-67.73 64.71,-174.69 64.71,-174.69 0,0 100.66,96.26 147.39,188.96 46.75,92.69 107.87,401.35 140.21,494.8 32.36,93.45 104.27,375.09 122.23,421.45 17.98,46.35 25.17,139.05 25.17,167.56 0,28.53 4.96,78.44 24.05,103.4 19.1,24.96 37.07,153.3 37.07,153.3 0,0 14.39,228.17 21.57,306.6 7.19,78.44 10.79,285.22 0,338.7 -10.78,53.47 1.08,74.11 -58.77,95.88 z"
   style="fill:#4b0082;stroke:#211d1d;stroke-width:3.33325;stroke-miterlimit:10" />
<g
   id="COLLAR"
   transform="matrix(10,0,0,10,0.05406671,-19.09692)">
	<path
   id="collarMain"
   d="m 140.112,147.266 c 0,0 -0.917,-6.877 2.751,-9.398 3.666,-2.522 16.046,-12.149 20.859,-17.192 4.813,-5.044 6.189,-13.524 5.272,-16.505 -0.916,-2.98 -6.273,-6.8758 -12.19,-6.8758 -5.919,0 -28.154,-0.6879 -32.05,0 -3.898,0.688 -11.232,2.292 -13.067,5.0428 -1.833,2.75 -6.647,14.135 0,19.79 6.648,5.654 15.817,9.321 19.715,13.906 3.895,4.584 5.73,12.379 5.73,12.379 0,0 -27.585,-3.187 -38.091,-34.03 0,0 2.791,-22.361 41.987,-19.8383 39.199,2.5212 29.593,2.4839 38.751,21.0703 0,0 -12.389,27.755 -39.667,31.651 z"
   style="fill:#4b0082;stroke:#000000;stroke-width:0.5;stroke-miterlimit:10" />
	<path
   id="collarBack"
   d="m 135.046,96.9931 c -4.792,-0.0202 -8.831,0.0438 -10.292,0.3018 -3.898,0.688 -11.232,2.2927 -13.067,5.0431 -1.002,1.504 -2.884,5.588 -3.309,9.905 1.47,-1.797 3.873,-3.288 6.89,-5.004 3.167,-1.8 12.518,-3.036 22.501,-3.034 11.315,0.002 23.44,1.593 28.294,5.754 1.147,0.983 1.715,2.22 1.834,3.631 1.362,-3.833 1.649,-7.624 1.097,-9.419 -0.916,-2.98 -6.273,-6.8761 -12.19,-6.8761 -3.7,0 -13.773,-0.2683 -21.758,-0.3018 z"
   style="fill:#4b0082;stroke:#000000;stroke-width:0.5;stroke-miterlimit:10" />
</g><g
   id="CUFFS"
   transform="matrix(10,0,0,10,0.05406671,-19.09692)">
   <path
   id="cuffLeft"
   d="M 44.7433,329.043 C 20.3479,311.35 0.173748,334.35 0.173748,334.35 c 0,0 0.103997,10.783 0.26666,12.654 0.163996,1.871 0.665312,5.354 0.927972,6.91 0.26266,1.556 0.08,2.895 1.43997,3.968 1.35996,1.074 3.91457,2.24 3.91457,2.24 0,0 -0.31466,4.511 2.6106,7.439 2.92528,2.925 9.58508,4.173 19.03818,1.62 9.4531,-2.551 16.4903,-6.833 14.8996,-16.939 0,0 3.5613,-4.394 2.3426,-10.463 -1.2199,-6.07 -0.8706,-12.736 -0.8706,-12.736 z"
   style="fill:#567d46;stroke:#211d1d;stroke-width:0.333325;stroke-miterlimit:10" />
   <path
   id="cuffRight"
   d="m 233.203,329.043 c 24.397,-17.693 44.571,5.307 44.571,5.307 0,0 -0.105,10.783 -0.268,12.654 -0.164,1.871 -0.665,5.354 -0.928,6.91 -0.263,1.556 -0.08,2.895 -1.44,3.968 -1.359,1.074 -3.915,2.24 -3.915,2.24 0,0 0.315,4.511 -2.61,7.439 -2.927,2.925 -9.587,4.173 -19.038,1.62 -9.454,-2.551 -16.491,-6.833 -14.9,-16.939 0,0 -3.561,-4.394 -2.341,-10.463 1.218,-6.07 0.869,-12.736 0.869,-12.736 z"
   style="fill:#567d46;stroke:#211d1d;stroke-width:0.333325;stroke-miterlimit:10" />
</g><g
   id="PEAK"
   transform="matrix(10,0,0,10,0.05406671,-19.09692)">
<path
   id="peak_path"
   d="m 190.95,61.8148 c 0,0 14.497,6.1252 11.434,12.2504 -3.062,6.1265 -55.653,11.993 -81.876,-7.2545 0,0 43.899,1.9466 70.442,-4.9959 z"
   style="fill:#567d46;stroke:#211d1d;stroke-width:0.333325;stroke-miterlimit:10" />
</g><g
   id="CUFF-SHADOWS"
   transform="matrix(10,0,0,10,0.05406671,-19.09692)">
   <path
   id="cuffShadow1"
   d="m 38.2355,351.3 c 0,0 -10.4264,-1.935 -15.0996,0 -4.6732,1.933 -10.0664,2.416 -11.1451,8.22 -1.0786,5.802 0.7187,7.78 7.9092,7.757 7.1904,-0.021 22.6487,-7.275 18.3355,-15.977 z"
   style="fill-opacity:0;stroke:#211d1d;stroke-width:0.333325;stroke-miterlimit:10" />
   <path
   id="cuffShadow2"
   d="m 239.709,351.3 c 0,0 10.426,-1.935 15.1,0 4.673,1.933 10.066,2.416 11.145,8.22 1.078,5.802 -0.719,7.78 -7.909,7.757 -7.191,-0.021 -22.649,-7.275 -18.336,-15.977 z"
   style="fill-opacity:0;stroke:#211d1d;stroke-width:0.333325;stroke-miterlimit:10" />
</g><path
   id="path1518-7"
   style="fill:#4b0082;fill-opacity:1;stroke:#ffd700;stroke-width:33.6218;stroke-miterlimit:4;stroke-dasharray:none;stroke-opacity:1"
   d="m 1906.6815,1722.9248 a 1083.0214,830.48889 0 0 1 -125.7565,39.8434 c 40.5924,122.9083 65.369,254.4588 65.369,374.8282 0,358.5454 -205.9721,649.3654 -460.0136,649.3654 -254.0414,0 -459.89217,-290.82 -459.89207,-649.3654 0,-117.768 23.80753,-246.0546 62.81764,-366.6411 a 1083.0214,830.48889 0 0 1 -120.53194,-38.3425 c -70.7954,172.4264 -114.0922,363.8662 -114.0922,536.9306 0,453.6693 284.38997,821.2925 635.22217,821.2925 350.8325,0 635.2222,-367.6232 635.2223,-821.2925 0,-176.3664 -45.0728,-371.7045 -118.3448,-546.6186 z" /></svg>
